<?xml version="1.0" encoding="utf-8" standalone="no"?>
<!DOCTYPE svg PUBLIC "-//W3C//DTD SVG 1.1//EN"
  "http://www.w3.org/Graphics/SVG/1.1/DTD/svg11.dtd">
<svg xmlns:xlink="http://www.w3.org/1999/xlink" width="227.66875pt" height="199.0125pt" viewBox="0 0 227.66875 199.0125" xmlns="http://www.w3.org/2000/svg" version="1.1">
 <metadata>
  <rdf:RDF xmlns:dc="http://purl.org/dc/elements/1.1/" xmlns:cc="http://creativecommons.org/ns#" xmlns:rdf="http://www.w3.org/1999/02/22-rdf-syntax-ns#">
   <cc:Work>
    <dc:type rdf:resource="http://purl.org/dc/dcmitype/StillImage"/>
    <dc:date>2026-09-17T17:41:36.371676</dc:date>
    <dc:format>image/svg+xml</dc:format>
    <dc:creator>
     <cc:Agent>
      <dc:title>Matplotlib v3.10.9, https://matplotlib.org/</dc:title>
     </cc:Agent>
    </dc:creator>
   </cc:Work>
  </rdf:RDF>
 </metadata>
 <defs>
  <style type="text/css">*{stroke-linejoin: round; stroke-linecap: butt}</style>
 </defs>
 <g id="figure_1">
  <g id="patch_1">
   <path d="M 0 199.0125 
L 227.66875 199.0125 
L 227.66875 0 
L 0 0 
z
" style="fill: #ffffff"/>
  </g>
  <g id="axes_1">
   <g id="patch_2">
    <path d="M 35.3325 167.58625 
L 141.50875 167.58625 
L 141.50875 7.2 
L 35.3325 7.2 
z
" style="fill: #ffffff"/>
   </g>
   <g id="matplotlib.axis_1">
    <g id="xtick_1">
     <g id="line2d_1">
      <defs>
       <path id="m69ece489b0" d="M 0 0 
L 0 2 
" style="stroke: #000000; stroke-width: 0.5"/>
      </defs>
      <g>
       <use xlink:href="#m69ece489b0" x="35.3325" y="167.58625" style="stroke: #000000; stroke-width: 0.5"/>
      </g>
     </g>
     <g id="text_1">
      <text style="font-size: 8px; font-family: 'Arial'; text-anchor: middle" x="35.3325" y="178.8125" transform="rotate(-0 35.3325 178.8125)">0.0</text>
     </g>
    </g>
    <g id="xtick_2">
     <g id="line2d_2">
      <g>
       <use xlink:href="#m69ece489b0" x="77.247169" y="167.58625" style="stroke: #000000; stroke-width: 0.5"/>
      </g>
     </g>
     <g id="text_2">
      <text style="font-size: 8px; font-family: 'Arial'; text-anchor: middle" x="77.247169" y="178.8125" transform="rotate(-0 77.247169 178.8125)">0.2</text>
     </g>
    </g>
    <g id="xtick_3">
     <g id="line2d_3">
      <g>
       <use xlink:href="#m69ece489b0" x="119.161837" y="167.58625" style="stroke: #000000; stroke-width: 0.5"/>
      </g>
     </g>
     <g id="text_3">
      <text style="font-size: 8px; font-family: 'Arial'; text-anchor: middle" x="119.161837" y="178.8125" transform="rotate(-0 119.161837 178.8125)">0.4</text>
     </g>
    </g>
    <g id="text_4">
     <text style="font-size: 8px; font-family: 'Arial'; text-anchor: middle" x="88.420625" y="190.12875" transform="rotate(-0 88.420625 190.12875)">lose-switch probability</text>
    </g>
   </g>
   <g id="matplotlib.axis_2">
    <g id="ytick_1">
     <g id="line2d_4">
      <defs>
       <path id="m3b5a3cac82" d="M 0 0 
L -2 0 
" style="stroke: #000000; stroke-width: 0.5"/>
      </defs>
      <g>
       <use xlink:href="#m3b5a3cac82" x="35.3325" y="163.204121" style="stroke: #000000; stroke-width: 0.5"/>
      </g>
     </g>
     <g id="text_5">
      <text style="font-size: 8px; font-family: 'Arial'; text-anchor: end" x="29.8325" y="166.067246" transform="rotate(-0 29.8325 166.067246)">0.0</text>
     </g>
    </g>
    <g id="ytick_2">
     <g id="line2d_5">
      <g>
       <use xlink:href="#m3b5a3cac82" x="35.3325" y="142.261196" style="stroke: #000000; stroke-width: 0.5"/>
      </g>
     </g>
     <g id="text_6">
      <text style="font-size: 8px; font-family: 'Arial'; text-anchor: end" x="29.8325" y="145.124321" transform="rotate(-0 29.8325 145.124321)">0.1</text>
     </g>
    </g>
    <g id="ytick_3">
     <g id="line2d_6">
      <g>
       <use xlink:href="#m3b5a3cac82" x="35.3325" y="121.318271" style="stroke: #000000; stroke-width: 0.5"/>
      </g>
     </g>
     <g id="text_7">
      <text style="font-size: 8px; font-family: 'Arial'; text-anchor: end" x="29.8325" y="124.181396" transform="rotate(-0 29.8325 124.181396)">0.2</text>
     </g>
    </g>
    <g id="ytick_4">
     <g id="line2d_7">
      <g>
       <use xlink:href="#m3b5a3cac82" x="35.3325" y="100.375346" style="stroke: #000000; stroke-width: 0.5"/>
      </g>
     </g>
     <g id="text_8">
      <text style="font-size: 8px; font-family: 'Arial'; text-anchor: end" x="29.8325" y="103.238471" transform="rotate(-0 29.8325 103.238471)">0.3</text>
     </g>
    </g>
    <g id="ytick_5">
     <g id="line2d_8">
      <g>
       <use xlink:href="#m3b5a3cac82" x="35.3325" y="79.43242" style="stroke: #000000; stroke-width: 0.5"/>
      </g>
     </g>
     <g id="text_9">
      <text style="font-size: 8px; font-family: 'Arial'; text-anchor: end" x="29.8325" y="82.295545" transform="rotate(-0 29.8325 82.295545)">0.4</text>
     </g>
    </g>
    <g id="ytick_6">
     <g id="line2d_9">
      <g>
       <use xlink:href="#m3b5a3cac82" x="35.3325" y="58.489495" style="stroke: #000000; stroke-width: 0.5"/>
      </g>
     </g>
     <g id="text_10">
      <text style="font-size: 8px; font-family: 'Arial'; text-anchor: end" x="29.8325" y="61.35262" transform="rotate(-0 29.8325 61.35262)">0.5</text>
     </g>
    </g>
    <g id="ytick_7">
     <g id="line2d_10">
      <g>
       <use xlink:href="#m3b5a3cac82" x="35.3325" y="37.54657" style="stroke: #000000; stroke-width: 0.5"/>
      </g>
     </g>
     <g id="text_11">
      <text style="font-size: 8px; font-family: 'Arial'; text-anchor: end" x="29.8325" y="40.409695" transform="rotate(-0 29.8325 40.409695)">0.6</text>
     </g>
    </g>
    <g id="ytick_8">
     <g id="line2d_11">
      <g>
       <use xlink:href="#m3b5a3cac82" x="35.3325" y="16.603645" style="stroke: #000000; stroke-width: 0.5"/>
      </g>
     </g>
     <g id="text_12">
      <text style="font-size: 8px; font-family: 'Arial'; text-anchor: end" x="29.8325" y="19.46677" transform="rotate(-0 29.8325 19.46677)">0.7</text>
     </g>
    </g>
    <g id="text_13">
     <text style="font-size: 8px; font-family: 'Arial'; text-anchor: middle" x="13.02875" y="87.393125" transform="rotate(-90 13.02875 87.393125)">Q-value alignment</text>
    </g>
   </g>
   <g id="patch_3">
    <path d="M 35.3325 167.58625 
L 35.3325 7.2 
" style="fill: none; stroke: #000000; stroke-width: 0.5; stroke-linejoin: miter; stroke-linecap: square"/>
   </g>
   <g id="patch_4">
    <path d="M 35.3325 167.58625 
L 141.50875 167.58625 
" style="fill: none; stroke: #000000; stroke-width: 0.5; stroke-linejoin: miter; stroke-linecap: square"/>
   </g>
   <g id="LineCollection_1">
    <path d="M 113.059948 115.992644 
L 127.376928 115.992644 
" clip-path="url(#p318912221e)" style="fill: none; stroke: #8e44ad"/>
   </g>
   <g id="LineCollection_2">
    <path d="M 120.218438 120.03478 
L 120.218438 111.950509 
" clip-path="url(#p318912221e)" style="fill: none; stroke: #8e44ad"/>
   </g>
   <g id="line2d_12">
    <defs>
     <path id="m53a8b4354b" d="M 0 2 
L 0 -2 
" style="stroke: #8e44ad; stroke-width: 0.5"/>
    </defs>
    <g clip-path="url(#p318912221e)">
     <use xlink:href="#m53a8b4354b" x="113.059948" y="115.992644" style="fill: #8e44ad; stroke: #8e44ad; stroke-width: 0.5"/>
    </g>
   </g>
   <g id="line2d_13">
    <g clip-path="url(#p318912221e)">
     <use xlink:href="#m53a8b4354b" x="127.376928" y="115.992644" style="fill: #8e44ad; stroke: #8e44ad; stroke-width: 0.5"/>
    </g>
   </g>
   <g id="line2d_14">
    <defs>
     <path id="m1b5a4e328b" d="M 2 0 
L -2 -0 
" style="stroke: #8e44ad; stroke-width: 0.5"/>
    </defs>
    <g clip-path="url(#p318912221e)">
     <use xlink:href="#m1b5a4e328b" x="120.218438" y="120.03478" style="fill: #8e44ad; stroke: #8e44ad; stroke-width: 0.5"/>
    </g>
   </g>
   <g id="line2d_15">
    <g clip-path="url(#p318912221e)">
     <use xlink:href="#m1b5a4e328b" x="120.218438" y="111.950509" style="fill: #8e44ad; stroke: #8e44ad; stroke-width: 0.5"/>
    </g>
   </g>
   <g id="LineCollection_3">
    <path d="M 90.340431 78.528161 
L 105.587159 78.528161 
" clip-path="url(#p318912221e)" style="fill: none; stroke: #c39bd3"/>
   </g>
   <g id="LineCollection_4">
    <path d="M 97.963795 82.852805 
L 97.963795 74.203517 
" clip-path="url(#p318912221e)" style="fill: none; stroke: #c39bd3"/>
   </g>
   <g id="line2d_16">
    <defs>
     <path id="md9f4786f04" d="M 0 2 
L 0 -2 
" style="stroke: #c39bd3; stroke-width: 0.5"/>
    </defs>
    <g clip-path="url(#p318912221e)">
     <use xlink:href="#md9f4786f04" x="90.340431" y="78.528161" style="fill: #c39bd3; stroke: #c39bd3; stroke-width: 0.5"/>
    </g>
   </g>
   <g id="line2d_17">
    <g clip-path="url(#p318912221e)">
     <use xlink:href="#md9f4786f04" x="105.587159" y="78.528161" style="fill: #c39bd3; stroke: #c39bd3; stroke-width: 0.5"/>
    </g>
   </g>
   <g id="line2d_18">
    <defs>
     <path id="m6af9e254e0" d="M 2 0 
L -2 -0 
" style="stroke: #c39bd3; stroke-width: 0.5"/>
    </defs>
    <g clip-path="url(#p318912221e)">
     <use xlink:href="#m6af9e254e0" x="97.963795" y="82.852805" style="fill: #c39bd3; stroke: #c39bd3; stroke-width: 0.5"/>
    </g>
   </g>
   <g id="line2d_19">
    <g clip-path="url(#p318912221e)">
     <use xlink:href="#m6af9e254e0" x="97.963795" y="74.203517" style="fill: #c39bd3; stroke: #c39bd3; stroke-width: 0.5"/>
    </g>
   </g>
   <g id="LineCollection_5">
    <path d="M 94.678901 89.778256 
L 110.295857 89.778256 
" clip-path="url(#p318912221e)" style="fill: none; stroke: #f39c12"/>
   </g>
   <g id="LineCollection_6">
    <path d="M 102.487379 93.648423 
L 102.487379 85.908089 
" clip-path="url(#p318912221e)" style="fill: none; stroke: #f39c12"/>
   </g>
   <g id="line2d_20">
    <defs>
     <path id="mf1a8f06bba" d="M 0 2 
L 0 -2 
" style="stroke: #f39c12; stroke-width: 0.5"/>
    </defs>
    <g clip-path="url(#p318912221e)">
     <use xlink:href="#mf1a8f06bba" x="94.678901" y="89.778256" style="fill: #f39c12; stroke: #f39c12; stroke-width: 0.5"/>
    </g>
   </g>
   <g id="line2d_21">
    <g clip-path="url(#p318912221e)">
     <use xlink:href="#mf1a8f06bba" x="110.295857" y="89.778256" style="fill: #f39c12; stroke: #f39c12; stroke-width: 0.5"/>
    </g>
   </g>
   <g id="line2d_22">
    <defs>
     <path id="m335325a271" d="M 2 0 
L -2 -0 
" style="stroke: #f39c12; stroke-width: 0.5"/>
    </defs>
    <g clip-path="url(#p318912221e)">
     <use xlink:href="#m335325a271" x="102.487379" y="93.648423" style="fill: #f39c12; stroke: #f39c12; stroke-width: 0.5"/>
    </g>
   </g>
   <g id="line2d_23">
    <g clip-path="url(#p318912221e)">
     <use xlink:href="#m335325a271" x="102.487379" y="85.908089" style="fill: #f39c12; stroke: #f39c12; stroke-width: 0.5"/>
    </g>
   </g>
   <g id="LineCollection_7">
    <path d="M 78.620431 22.484444 
L 96.619629 22.484444 
" clip-path="url(#p318912221e)" style="fill: none; stroke: #1abc9c"/>
   </g>
   <g id="LineCollection_8">
    <path d="M 87.62003 30.478605 
L 87.62003 14.490284 
" clip-path="url(#p318912221e)" style="fill: none; stroke: #1abc9c"/>
   </g>
   <g id="line2d_24">
    <defs>
     <path id="mb0ba8a361e" d="M 0 2 
L 0 -2 
" style="stroke: #1abc9c; stroke-width: 0.5"/>
    </defs>
    <g clip-path="url(#p318912221e)">
     <use xlink:href="#mb0ba8a361e" x="78.620431" y="22.484444" style="fill: #1abc9c; stroke: #1abc9c; stroke-width: 0.5"/>
    </g>
   </g>
   <g id="line2d_25">
    <g clip-path="url(#p318912221e)">
     <use xlink:href="#mb0ba8a361e" x="96.619629" y="22.484444" style="fill: #1abc9c; stroke: #1abc9c; stroke-width: 0.5"/>
    </g>
   </g>
   <g id="line2d_26">
    <defs>
     <path id="mdc590ec79b" d="M 2 0 
L -2 -0 
" style="stroke: #1abc9c; stroke-width: 0.5"/>
    </defs>
    <g clip-path="url(#p318912221e)">
     <use xlink:href="#mdc590ec79b" x="87.62003" y="30.478605" style="fill: #1abc9c; stroke: #1abc9c; stroke-width: 0.5"/>
    </g>
   </g>
   <g id="line2d_27">
    <g clip-path="url(#p318912221e)">
     <use xlink:href="#mdc590ec79b" x="87.62003" y="14.490284" style="fill: #1abc9c; stroke: #1abc9c; stroke-width: 0.5"/>
    </g>
   </g>
   <g id="LineCollection_9">
    <path d="M 123.343312 136.779551 
L 138.514068 136.779551 
" clip-path="url(#p318912221e)" style="fill: none; stroke: #2980b9"/>
   </g>
   <g id="LineCollection_10">
    <path d="M 130.92869 139.390903 
L 130.92869 134.168199 
" clip-path="url(#p318912221e)" style="fill: none; stroke: #2980b9"/>
   </g>
   <g id="line2d_28">
    <defs>
     <path id="m9a0cd9ded9" d="M 0 2 
L 0 -2 
" style="stroke: #2980b9; stroke-width: 0.5"/>
    </defs>
    <g clip-path="url(#p318912221e)">
     <use xlink:href="#m9a0cd9ded9" x="123.343312" y="136.779551" style="fill: #2980b9; stroke: #2980b9; stroke-width: 0.5"/>
    </g>
   </g>
   <g id="line2d_29">
    <g clip-path="url(#p318912221e)">
     <use xlink:href="#m9a0cd9ded9" x="138.514068" y="136.779551" style="fill: #2980b9; stroke: #2980b9; stroke-width: 0.5"/>
    </g>
   </g>
   <g id="line2d_30">
    <defs>
     <path id="m1496ecbbcd" d="M 2 0 
L -2 -0 
" style="stroke: #2980b9; stroke-width: 0.5"/>
    </defs>
    <g clip-path="url(#p318912221e)">
     <use xlink:href="#m1496ecbbcd" x="130.92869" y="139.390903" style="fill: #2980b9; stroke: #2980b9; stroke-width: 0.5"/>
    </g>
   </g>
   <g id="line2d_31">
    <g clip-path="url(#p318912221e)">
     <use xlink:href="#m1496ecbbcd" x="130.92869" y="134.168199" style="fill: #2980b9; stroke: #2980b9; stroke-width: 0.5"/>
    </g>
   </g>
   <g id="LineCollection_11">
    <path d="M 106.872334 148.657827 
L 121.015403 148.657827 
" clip-path="url(#p318912221e)" style="fill: none; stroke: #7f8c8d"/>
   </g>
   <g id="LineCollection_12">
    <path d="M 113.943868 160.295966 
L 113.943868 137.019688 
" clip-path="url(#p318912221e)" style="fill: none; stroke: #7f8c8d"/>
   </g>
   <g id="line2d_32">
    <defs>
     <path id="m6d3d8dfba2" d="M 0 2 
L 0 -2 
" style="stroke: #7f8c8d; stroke-width: 0.5"/>
    </defs>
    <g clip-path="url(#p318912221e)">
     <use xlink:href="#m6d3d8dfba2" x="106.872334" y="148.657827" style="fill: #7f8c8d; stroke: #7f8c8d; stroke-width: 0.5"/>
    </g>
   </g>
   <g id="line2d_33">
    <g clip-path="url(#p318912221e)">
     <use xlink:href="#m6d3d8dfba2" x="121.015403" y="148.657827" style="fill: #7f8c8d; stroke: #7f8c8d; stroke-width: 0.5"/>
    </g>
   </g>
   <g id="line2d_34">
    <defs>
     <path id="m9533b6bb84" d="M 2 0 
L -2 -0 
" style="stroke: #7f8c8d; stroke-width: 0.5"/>
    </defs>
    <g clip-path="url(#p318912221e)">
     <use xlink:href="#m9533b6bb84" x="113.943868" y="160.295966" style="fill: #7f8c8d; stroke: #7f8c8d; stroke-width: 0.5"/>
    </g>
   </g>
   <g id="line2d_35">
    <g clip-path="url(#p318912221e)">
     <use xlink:href="#m9533b6bb84" x="113.943868" y="137.019688" style="fill: #7f8c8d; stroke: #7f8c8d; stroke-width: 0.5"/>
    </g>
   </g>
   <g id="LineCollection_13">
    <path d="M 120.265678 138.908065 
L 133.496858 138.908065 
" clip-path="url(#p318912221e)" style="fill: none; stroke: #e74c3c"/>
   </g>
   <g id="LineCollection_14">
    <path d="M 126.881268 146.912654 
L 126.881268 130.903475 
" clip-path="url(#p318912221e)" style="fill: none; stroke: #e74c3c"/>
   </g>
   <g id="line2d_36">
    <defs>
     <path id="mbdf5c0cff7" d="M 0 2 
L 0 -2 
" style="stroke: #e74c3c; stroke-width: 0.5"/>
    </defs>
    <g clip-path="url(#p318912221e)">
     <use xlink:href="#mbdf5c0cff7" x="120.265678" y="138.908065" style="fill: #e74c3c; stroke: #e74c3c; stroke-width: 0.5"/>
    </g>
   </g>
   <g id="line2d_37">
    <g clip-path="url(#p318912221e)">
     <use xlink:href="#mbdf5c0cff7" x="133.496858" y="138.908065" style="fill: #e74c3c; stroke: #e74c3c; stroke-width: 0.5"/>
    </g>
   </g>
   <g id="line2d_38">
    <defs>
     <path id="mb8a6acdda2" d="M 2 0 
L -2 -0 
" style="stroke: #e74c3c; stroke-width: 0.5"/>
    </defs>
    <g clip-path="url(#p318912221e)">
     <use xlink:href="#mb8a6acdda2" x="126.881268" y="146.912654" style="fill: #e74c3c; stroke: #e74c3c; stroke-width: 0.5"/>
    </g>
   </g>
   <g id="line2d_39">
    <g clip-path="url(#p318912221e)">
     <use xlink:href="#mb8a6acdda2" x="126.881268" y="130.903475" style="fill: #e74c3c; stroke: #e74c3c; stroke-width: 0.5"/>
    </g>
   </g>
   <g id="line2d_40">
    <defs>
     <path id="md379b9bf2a" d="M 0 3.5 
C 0.928211 3.5 1.81853 3.131218 2.474874 2.474874 
C 3.131218 1.81853 3.5 0.928211 3.5 0 
C 3.5 -0.928211 3.131218 -1.81853 2.474874 -2.474874 
C 1.81853 -3.131218 0.928211 -3.5 0 -3.5 
C -0.928211 -3.5 -1.81853 -3.131218 -2.474874 -2.474874 
C -3.131218 -1.81853 -3.5 -0.928211 -3.5 0 
C -3.5 0.928211 -3.131218 1.81853 -2.474874 2.474874 
C -1.81853 3.131218 -0.928211 3.5 0 3.5 
z
" style="stroke: #000000; stroke-width: 0.5"/>
    </defs>
    <g clip-path="url(#p318912221e)">
     <use xlink:href="#md379b9bf2a" x="120.218438" y="115.992644" style="fill: #8e44ad; stroke: #000000; stroke-width: 0.5"/>
    </g>
   </g>
   <g id="line2d_41">
    <defs>
     <path id="m1d81506da1" d="M 0 3.5 
C 0.928211 3.5 1.81853 3.131218 2.474874 2.474874 
C 3.131218 1.81853 3.5 0.928211 3.5 0 
C 3.5 -0.928211 3.131218 -1.81853 2.474874 -2.474874 
C 1.81853 -3.131218 0.928211 -3.5 0 -3.5 
C -0.928211 -3.5 -1.81853 -3.131218 -2.474874 -2.474874 
C -3.131218 -1.81853 -3.5 -0.928211 -3.5 0 
C -3.5 0.928211 -3.131218 1.81853 -2.474874 2.474874 
C -1.81853 3.131218 -0.928211 3.5 0 3.5 
z
" style="stroke: #000000; stroke-width: 0.5"/>
    </defs>
    <g clip-path="url(#p318912221e)">
     <use xlink:href="#m1d81506da1" x="97.963795" y="78.528161" style="fill: #c39bd3; stroke: #000000; stroke-width: 0.5"/>
    </g>
   </g>
   <g id="line2d_42">
    <defs>
     <path id="me32aabb96b" d="M 0 3.5 
C 0.928211 3.5 1.81853 3.131218 2.474874 2.474874 
C 3.131218 1.81853 3.5 0.928211 3.5 0 
C 3.5 -0.928211 3.131218 -1.81853 2.474874 -2.474874 
C 1.81853 -3.131218 0.928211 -3.5 0 -3.5 
C -0.928211 -3.5 -1.81853 -3.131218 -2.474874 -2.474874 
C -3.131218 -1.81853 -3.5 -0.928211 -3.5 0 
C -3.5 0.928211 -3.131218 1.81853 -2.474874 2.474874 
C -1.81853 3.131218 -0.928211 3.5 0 3.5 
z
" style="stroke: #000000; stroke-width: 0.5"/>
    </defs>
    <g clip-path="url(#p318912221e)">
     <use xlink:href="#me32aabb96b" x="102.487379" y="89.778256" style="fill: #f39c12; stroke: #000000; stroke-width: 0.5"/>
    </g>
   </g>
   <g id="line2d_43">
    <defs>
     <path id="m4bcc044e9b" d="M 0 3.5 
C 0.928211 3.5 1.81853 3.131218 2.474874 2.474874 
C 3.131218 1.81853 3.5 0.928211 3.5 0 
C 3.5 -0.928211 3.131218 -1.81853 2.474874 -2.474874 
C 1.81853 -3.131218 0.928211 -3.5 0 -3.5 
C -0.928211 -3.5 -1.81853 -3.131218 -2.474874 -2.474874 
C -3.131218 -1.81853 -3.5 -0.928211 -3.5 0 
C -3.5 0.928211 -3.131218 1.81853 -2.474874 2.474874 
C -1.81853 3.131218 -0.928211 3.5 0 3.5 
z
" style="stroke: #000000; stroke-width: 0.5"/>
    </defs>
    <g clip-path="url(#p318912221e)">
     <use xlink:href="#m4bcc044e9b" x="87.62003" y="22.484444" style="fill: #1abc9c; stroke: #000000; stroke-width: 0.5"/>
    </g>
   </g>
   <g id="line2d_44">
    <defs>
     <path id="m28a8ecf14f" d="M 0 3.5 
C 0.928211 3.5 1.81853 3.131218 2.474874 2.474874 
C 3.131218 1.81853 3.5 0.928211 3.5 0 
C 3.5 -0.928211 3.131218 -1.81853 2.474874 -2.474874 
C 1.81853 -3.131218 0.928211 -3.5 0 -3.5 
C -0.928211 -3.5 -1.81853 -3.131218 -2.474874 -2.474874 
C -3.131218 -1.81853 -3.5 -0.928211 -3.5 0 
C -3.5 0.928211 -3.131218 1.81853 -2.474874 2.474874 
C -1.81853 3.131218 -0.928211 3.5 0 3.5 
z
" style="stroke: #000000; stroke-width: 0.5"/>
    </defs>
    <g clip-path="url(#p318912221e)">
     <use xlink:href="#m28a8ecf14f" x="130.92869" y="136.779551" style="fill: #2980b9; stroke: #000000; stroke-width: 0.5"/>
    </g>
   </g>
   <g id="line2d_45">
    <defs>
     <path id="m2ec7df0b43" d="M 0 3.5 
C 0.928211 3.5 1.81853 3.131218 2.474874 2.474874 
C 3.131218 1.81853 3.5 0.928211 3.5 0 
C 3.5 -0.928211 3.131218 -1.81853 2.474874 -2.474874 
C 1.81853 -3.131218 0.928211 -3.5 0 -3.5 
C -0.928211 -3.5 -1.81853 -3.131218 -2.474874 -2.474874 
C -3.131218 -1.81853 -3.5 -0.928211 -3.5 0 
C -3.5 0.928211 -3.131218 1.81853 -2.474874 2.474874 
C -1.81853 3.131218 -0.928211 3.5 0 3.5 
z
" style="stroke: #000000; stroke-width: 0.5"/>
    </defs>
    <g clip-path="url(#p318912221e)">
     <use xlink:href="#m2ec7df0b43" x="113.943868" y="148.657827" style="fill: #7f8c8d; stroke: #000000; stroke-width: 0.5"/>
    </g>
   </g>
   <g id="line2d_46">
    <defs>
     <path id="mcbf3235024" d="M 0 3.5 
C 0.928211 3.5 1.81853 3.131218 2.474874 2.474874 
C 3.131218 1.81853 3.5 0.928211 3.5 0 
C 3.5 -0.928211 3.131218 -1.81853 2.474874 -2.474874 
C 1.81853 -3.131218 0.928211 -3.5 0 -3.5 
C -0.928211 -3.5 -1.81853 -3.131218 -2.474874 -2.474874 
C -3.131218 -1.81853 -3.5 -0.928211 -3.5 0 
C -3.5 0.928211 -3.131218 1.81853 -2.474874 2.474874 
C -1.81853 3.131218 -0.928211 3.5 0 3.5 
z
" style="stroke: #000000; stroke-width: 0.5"/>
    </defs>
    <g clip-path="url(#p318912221e)">
     <use xlink:href="#mcbf3235024" x="126.881268" y="138.908065" style="fill: #e74c3c; stroke: #000000; stroke-width: 0.5"/>
    </g>
   </g>
   <g id="legend_1">
    <g id="LineCollection_15">
     <path d="M 149.90875 14.867813 
L 155.90875 14.867813 
" style="fill: none; stroke: #8e44ad"/>
    </g>
    <g id="LineCollection_16">
     <path d="M 152.90875 17.867813 
L 152.90875 11.867813 
" style="fill: none; stroke: #8e44ad"/>
    </g>
    <g id="line2d_47">
     <g>
      <use xlink:href="#m53a8b4354b" x="149.90875" y="14.867813" style="fill: #8e44ad; stroke: #8e44ad; stroke-width: 0.5"/>
     </g>
    </g>
    <g id="line2d_48">
     <g>
      <use xlink:href="#m53a8b4354b" x="155.90875" y="14.867813" style="fill: #8e44ad; stroke: #8e44ad; stroke-width: 0.5"/>
     </g>
    </g>
    <g id="line2d_49">
     <g>
      <use xlink:href="#m1b5a4e328b" x="152.90875" y="17.867813" style="fill: #8e44ad; stroke: #8e44ad; stroke-width: 0.5"/>
     </g>
    </g>
    <g id="line2d_50">
     <g>
      <use xlink:href="#m1b5a4e328b" x="152.90875" y="11.867813" style="fill: #8e44ad; stroke: #8e44ad; stroke-width: 0.5"/>
     </g>
    </g>
    <g id="line2d_51"/>
    <g id="line2d_52">
     <g>
      <use xlink:href="#md379b9bf2a" x="152.90875" y="14.867813" style="fill: #8e44ad; stroke: #000000; stroke-width: 0.5"/>
     </g>
    </g>
    <g id="text_14">
     <text style="font-size: 6px; font-family: 'Arial'; text-anchor: start" x="163.70875" y="16.967813" transform="rotate(-0 163.70875 16.967813)">Adapting (fast)</text>
    </g>
    <g id="LineCollection_17">
     <path d="M 149.90875 23.498438 
L 155.90875 23.498438 
" style="fill: none; stroke: #c39bd3"/>
    </g>
    <g id="LineCollection_18">
     <path d="M 152.90875 26.498438 
L 152.90875 20.498438 
" style="fill: none; stroke: #c39bd3"/>
    </g>
    <g id="line2d_53">
     <g>
      <use xlink:href="#md9f4786f04" x="149.90875" y="23.498438" style="fill: #c39bd3; stroke: #c39bd3; stroke-width: 0.5"/>
     </g>
    </g>
    <g id="line2d_54">
     <g>
      <use xlink:href="#md9f4786f04" x="155.90875" y="23.498438" style="fill: #c39bd3; stroke: #c39bd3; stroke-width: 0.5"/>
     </g>
    </g>
    <g id="line2d_55">
     <g>
      <use xlink:href="#m6af9e254e0" x="152.90875" y="26.498438" style="fill: #c39bd3; stroke: #c39bd3; stroke-width: 0.5"/>
     </g>
    </g>
    <g id="line2d_56">
     <g>
      <use xlink:href="#m6af9e254e0" x="152.90875" y="20.498438" style="fill: #c39bd3; stroke: #c39bd3; stroke-width: 0.5"/>
     </g>
    </g>
    <g id="line2d_57"/>
    <g id="line2d_58">
     <g>
      <use xlink:href="#m1d81506da1" x="152.90875" y="23.498438" style="fill: #c39bd3; stroke: #000000; stroke-width: 0.5"/>
     </g>
    </g>
    <g id="text_15">
     <text style="font-size: 6px; font-family: 'Arial'; text-anchor: start" x="163.70875" y="25.598438" transform="rotate(-0 163.70875 25.598438)">Adapting (slow)</text>
    </g>
    <g id="LineCollection_19">
     <path d="M 149.90875 32.055937 
L 155.90875 32.055937 
" style="fill: none; stroke: #f39c12"/>
    </g>
    <g id="LineCollection_20">
     <path d="M 152.90875 35.055937 
L 152.90875 29.055937 
" style="fill: none; stroke: #f39c12"/>
    </g>
    <g id="line2d_59">
     <g>
      <use xlink:href="#mf1a8f06bba" x="149.90875" y="32.055937" style="fill: #f39c12; stroke: #f39c12; stroke-width: 0.5"/>
     </g>
    </g>
    <g id="line2d_60">
     <g>
      <use xlink:href="#mf1a8f06bba" x="155.90875" y="32.055937" style="fill: #f39c12; stroke: #f39c12; stroke-width: 0.5"/>
     </g>
    </g>
    <g id="line2d_61">
     <g>
      <use xlink:href="#m335325a271" x="152.90875" y="35.055937" style="fill: #f39c12; stroke: #f39c12; stroke-width: 0.5"/>
     </g>
    </g>
    <g id="line2d_62">
     <g>
      <use xlink:href="#m335325a271" x="152.90875" y="29.055937" style="fill: #f39c12; stroke: #f39c12; stroke-width: 0.5"/>
     </g>
    </g>
    <g id="line2d_63"/>
    <g id="line2d_64">
     <g>
      <use xlink:href="#me32aabb96b" x="152.90875" y="32.055937" style="fill: #f39c12; stroke: #000000; stroke-width: 0.5"/>
     </g>
    </g>
    <g id="text_16">
     <text style="font-size: 6px; font-family: 'Arial'; text-anchor: start" x="163.70875" y="34.155937" transform="rotate(-0 163.70875 34.155937)">Directed Exploration</text>
    </g>
    <g id="LineCollection_21">
     <path d="M 149.90875 40.543125 
L 155.90875 40.543125 
" style="fill: none; stroke: #1abc9c"/>
    </g>
    <g id="LineCollection_22">
     <path d="M 152.90875 43.543125 
L 152.90875 37.543125 
" style="fill: none; stroke: #1abc9c"/>
    </g>
    <g id="line2d_65">
     <g>
      <use xlink:href="#mb0ba8a361e" x="149.90875" y="40.543125" style="fill: #1abc9c; stroke: #1abc9c; stroke-width: 0.5"/>
     </g>
    </g>
    <g id="line2d_66">
     <g>
      <use xlink:href="#mb0ba8a361e" x="155.90875" y="40.543125" style="fill: #1abc9c; stroke: #1abc9c; stroke-width: 0.5"/>
     </g>
    </g>
    <g id="line2d_67">
     <g>
      <use xlink:href="#mdc590ec79b" x="152.90875" y="43.543125" style="fill: #1abc9c; stroke: #1abc9c; stroke-width: 0.5"/>
     </g>
    </g>
    <g id="line2d_68">
     <g>
      <use xlink:href="#mdc590ec79b" x="152.90875" y="37.543125" style="fill: #1abc9c; stroke: #1abc9c; stroke-width: 0.5"/>
     </g>
    </g>
    <g id="line2d_69"/>
    <g id="line2d_70">
     <g>
      <use xlink:href="#m4bcc044e9b" x="152.90875" y="40.543125" style="fill: #1abc9c; stroke: #000000; stroke-width: 0.5"/>
     </g>
    </g>
    <g id="text_17">
     <text style="font-size: 6px; font-family: 'Arial'; text-anchor: start" x="163.70875" y="42.643125" transform="rotate(-0 163.70875 42.643125)">Exploit</text>
    </g>
    <g id="LineCollection_23">
     <path d="M 149.90875 49.030313 
L 155.90875 49.030313 
" style="fill: none; stroke: #2980b9"/>
    </g>
    <g id="LineCollection_24">
     <path d="M 152.90875 52.030313 
L 152.90875 46.030313 
" style="fill: none; stroke: #2980b9"/>
    </g>
    <g id="line2d_71">
     <g>
      <use xlink:href="#m9a0cd9ded9" x="149.90875" y="49.030313" style="fill: #2980b9; stroke: #2980b9; stroke-width: 0.5"/>
     </g>
    </g>
    <g id="line2d_72">
     <g>
      <use xlink:href="#m9a0cd9ded9" x="155.90875" y="49.030313" style="fill: #2980b9; stroke: #2980b9; stroke-width: 0.5"/>
     </g>
    </g>
    <g id="line2d_73">
     <g>
      <use xlink:href="#m1496ecbbcd" x="152.90875" y="52.030313" style="fill: #2980b9; stroke: #2980b9; stroke-width: 0.5"/>
     </g>
    </g>
    <g id="line2d_74">
     <g>
      <use xlink:href="#m1496ecbbcd" x="152.90875" y="46.030313" style="fill: #2980b9; stroke: #2980b9; stroke-width: 0.5"/>
     </g>
    </g>
    <g id="line2d_75"/>
    <g id="line2d_76">
     <g>
      <use xlink:href="#m28a8ecf14f" x="152.90875" y="49.030313" style="fill: #2980b9; stroke: #000000; stroke-width: 0.5"/>
     </g>
    </g>
    <g id="text_18">
     <text style="font-size: 6px; font-family: 'Arial'; text-anchor: start" x="163.70875" y="51.130313" transform="rotate(-0 163.70875 51.130313)">Left Bias</text>
    </g>
    <g id="LineCollection_25">
     <path d="M 149.90875 57.5175 
L 155.90875 57.5175 
" style="fill: none; stroke: #7f8c8d"/>
    </g>
    <g id="LineCollection_26">
     <path d="M 152.90875 60.5175 
L 152.90875 54.5175 
" style="fill: none; stroke: #7f8c8d"/>
    </g>
    <g id="line2d_77">
     <g>
      <use xlink:href="#m6d3d8dfba2" x="149.90875" y="57.5175" style="fill: #7f8c8d; stroke: #7f8c8d; stroke-width: 0.5"/>
     </g>
    </g>
    <g id="line2d_78">
     <g>
      <use xlink:href="#m6d3d8dfba2" x="155.90875" y="57.5175" style="fill: #7f8c8d; stroke: #7f8c8d; stroke-width: 0.5"/>
     </g>
    </g>
    <g id="line2d_79">
     <g>
      <use xlink:href="#m9533b6bb84" x="152.90875" y="60.5175" style="fill: #7f8c8d; stroke: #7f8c8d; stroke-width: 0.5"/>
     </g>
    </g>
    <g id="line2d_80">
     <g>
      <use xlink:href="#m9533b6bb84" x="152.90875" y="54.5175" style="fill: #7f8c8d; stroke: #7f8c8d; stroke-width: 0.5"/>
     </g>
    </g>
    <g id="line2d_81"/>
    <g id="line2d_82">
     <g>
      <use xlink:href="#m2ec7df0b43" x="152.90875" y="57.5175" style="fill: #7f8c8d; stroke: #000000; stroke-width: 0.5"/>
     </g>
    </g>
    <g id="text_19">
     <text style="font-size: 6px; font-family: 'Arial'; text-anchor: start" x="163.70875" y="59.6175" transform="rotate(-0 163.70875 59.6175)">Random Exploration</text>
    </g>
    <g id="LineCollection_27">
     <path d="M 149.90875 66.004688 
L 155.90875 66.004688 
" style="fill: none; stroke: #e74c3c"/>
    </g>
    <g id="LineCollection_28">
     <path d="M 152.90875 69.004688 
L 152.90875 63.004688 
" style="fill: none; stroke: #e74c3c"/>
    </g>
    <g id="line2d_83">
     <g>
      <use xlink:href="#mbdf5c0cff7" x="149.90875" y="66.004688" style="fill: #e74c3c; stroke: #e74c3c; stroke-width: 0.5"/>
     </g>
    </g>
    <g id="line2d_84">
     <g>
      <use xlink:href="#mbdf5c0cff7" x="155.90875" y="66.004688" style="fill: #e74c3c; stroke: #e74c3c; stroke-width: 0.5"/>
     </g>
    </g>
    <g id="line2d_85">
     <g>
      <use xlink:href="#mb8a6acdda2" x="152.90875" y="69.004688" style="fill: #e74c3c; stroke: #e74c3c; stroke-width: 0.5"/>
     </g>
    </g>
    <g id="line2d_86">
     <g>
      <use xlink:href="#mb8a6acdda2" x="152.90875" y="63.004688" style="fill: #e74c3c; stroke: #e74c3c; stroke-width: 0.5"/>
     </g>
    </g>
    <g id="line2d_87"/>
    <g id="line2d_88">
     <g>
      <use xlink:href="#mcbf3235024" x="152.90875" y="66.004688" style="fill: #e74c3c; stroke: #000000; stroke-width: 0.5"/>
     </g>
    </g>
    <g id="text_20">
     <text style="font-size: 6px; font-family: 'Arial'; text-anchor: start" x="163.70875" y="68.104688" transform="rotate(-0 163.70875 68.104688)">Right Bias</text>
    </g>
   </g>
  </g>
 </g>
 <defs>
  <clipPath id="p318912221e">
   <rect x="35.3325" y="7.2" width="106.17625" height="160.38625"/>
  </clipPath>
 </defs>
</svg>
