<?xml version="1.0" encoding="utf-8" standalone="no"?>
<!DOCTYPE svg PUBLIC "-//W3C//DTD SVG 1.1//EN"
  "http://www.w3.org/Graphics/SVG/1.1/DTD/svg11.dtd">
<svg xmlns:xlink="http://www.w3.org/1999/xlink" width="330.122237pt" height="241.544063pt" viewBox="0 0 330.122237 241.544063" xmlns="http://www.w3.org/2000/svg" version="1.1">
 <metadata>
  <rdf:RDF xmlns:dc="http://purl.org/dc/elements/1.1/" xmlns:cc="http://creativecommons.org/ns#" xmlns:rdf="http://www.w3.org/1999/02/22-rdf-syntax-ns#">
   <cc:Work>
    <dc:type rdf:resource="http://purl.org/dc/dcmitype/StillImage"/>
    <dc:date>2026-09-17T16:48:24.779677</dc:date>
    <dc:format>image/svg+xml</dc:format>
    <dc:creator>
     <cc:Agent>
      <dc:title>Matplotlib v3.10.9, https://matplotlib.org/</dc:title>
     </cc:Agent>
    </dc:creator>
   </cc:Work>
  </rdf:RDF>
 </metadata>
 <defs>
  <style type="text/css">*{stroke-linejoin: round; stroke-linecap: butt}</style>
 </defs>
 <g id="figure_1">
  <g id="patch_1">
   <path d="M 0 241.544063 
L 330.122237 241.544063 
L 330.122237 0 
L 0 0 
z
" style="fill: #ffffff"/>
  </g>
  <g id="axes_1">
   <g id="patch_2">
    <path d="M 36.050781 209.081875 
L 226.983581 209.081875 
L 226.983581 10.063125 
L 36.050781 10.063125 
z
" style="fill: #ffffff"/>
   </g>
   <g id="matplotlib.axis_1">
    <g id="xtick_1">
     <g id="line2d_1">
      <defs>
       <path id="mb9b3378669" d="M 0 0 
L 0 2 
" style="stroke: #000000; stroke-width: 0.5"/>
      </defs>
      <g>
       <use xlink:href="#mb9b3378669" x="44.729545" y="209.081875" style="stroke: #000000; stroke-width: 0.5"/>
      </g>
     </g>
     <g id="text_1">
      <text style="font-size: 8px; font-family: 'Arial'; text-anchor: middle" x="44.729545" y="220.308125" transform="rotate(-0 44.729545 220.308125)">0.7</text>
     </g>
    </g>
    <g id="xtick_2">
     <g id="line2d_2">
      <g>
       <use xlink:href="#mb9b3378669" x="102.587969" y="209.081875" style="stroke: #000000; stroke-width: 0.5"/>
      </g>
     </g>
     <g id="text_2">
      <text style="font-size: 8px; font-family: 'Arial'; text-anchor: middle" x="102.587969" y="220.308125" transform="rotate(-0 102.587969 220.308125)">0.8</text>
     </g>
    </g>
    <g id="xtick_3">
     <g id="line2d_3">
      <g>
       <use xlink:href="#mb9b3378669" x="160.446393" y="209.081875" style="stroke: #000000; stroke-width: 0.5"/>
      </g>
     </g>
     <g id="text_3">
      <text style="font-size: 8px; font-family: 'Arial'; text-anchor: middle" x="160.446393" y="220.308125" transform="rotate(-0 160.446393 220.308125)">0.9</text>
     </g>
    </g>
    <g id="xtick_4">
     <g id="line2d_4">
      <g>
       <use xlink:href="#mb9b3378669" x="218.304818" y="209.081875" style="stroke: #000000; stroke-width: 0.5"/>
      </g>
     </g>
     <g id="text_4">
      <text style="font-size: 8px; font-family: 'Arial'; text-anchor: middle" x="218.304818" y="220.308125" transform="rotate(-0 218.304818 220.308125)">1.0</text>
     </g>
    </g>
    <g id="text_5">
     <text style="font-size: 9px; font-family: 'Arial'; text-anchor: middle" x="131.517181" y="232.449844" transform="rotate(-0 131.517181 232.449844)">P(reward | better option)</text>
    </g>
   </g>
   <g id="matplotlib.axis_2">
    <g id="ytick_1">
     <g id="line2d_5">
      <defs>
       <path id="m6a825308a1" d="M 0 0 
L -2 0 
" style="stroke: #000000; stroke-width: 0.5"/>
      </defs>
      <g>
       <use xlink:href="#m6a825308a1" x="36.050781" y="209.081875" style="stroke: #000000; stroke-width: 0.5"/>
      </g>
     </g>
     <g id="text_6">
      <text style="font-size: 8px; font-family: 'Arial'; text-anchor: end" x="30.550781" y="211.945" transform="rotate(-0 30.550781 211.945)">0.0</text>
     </g>
    </g>
    <g id="ytick_2">
     <g id="line2d_6">
      <g>
       <use xlink:href="#m6a825308a1" x="36.050781" y="180.650625" style="stroke: #000000; stroke-width: 0.5"/>
      </g>
     </g>
     <g id="text_7">
      <text style="font-size: 8px; font-family: 'Arial'; text-anchor: end" x="30.550781" y="183.51375" transform="rotate(-0 30.550781 183.51375)">0.1</text>
     </g>
    </g>
    <g id="ytick_3">
     <g id="line2d_7">
      <g>
       <use xlink:href="#m6a825308a1" x="36.050781" y="152.219375" style="stroke: #000000; stroke-width: 0.5"/>
      </g>
     </g>
     <g id="text_8">
      <text style="font-size: 8px; font-family: 'Arial'; text-anchor: end" x="30.550781" y="155.0825" transform="rotate(-0 30.550781 155.0825)">0.2</text>
     </g>
    </g>
    <g id="ytick_4">
     <g id="line2d_8">
      <g>
       <use xlink:href="#m6a825308a1" x="36.050781" y="123.788125" style="stroke: #000000; stroke-width: 0.5"/>
      </g>
     </g>
     <g id="text_9">
      <text style="font-size: 8px; font-family: 'Arial'; text-anchor: end" x="30.550781" y="126.65125" transform="rotate(-0 30.550781 126.65125)">0.3</text>
     </g>
    </g>
    <g id="ytick_5">
     <g id="line2d_9">
      <g>
       <use xlink:href="#m6a825308a1" x="36.050781" y="95.356875" style="stroke: #000000; stroke-width: 0.5"/>
      </g>
     </g>
     <g id="text_10">
      <text style="font-size: 8px; font-family: 'Arial'; text-anchor: end" x="30.550781" y="98.22" transform="rotate(-0 30.550781 98.22)">0.4</text>
     </g>
    </g>
    <g id="ytick_6">
     <g id="line2d_10">
      <g>
       <use xlink:href="#m6a825308a1" x="36.050781" y="66.925625" style="stroke: #000000; stroke-width: 0.5"/>
      </g>
     </g>
     <g id="text_11">
      <text style="font-size: 8px; font-family: 'Arial'; text-anchor: end" x="30.550781" y="69.78875" transform="rotate(-0 30.550781 69.78875)">0.5</text>
     </g>
    </g>
    <g id="ytick_7">
     <g id="line2d_11">
      <g>
       <use xlink:href="#m6a825308a1" x="36.050781" y="38.494375" style="stroke: #000000; stroke-width: 0.5"/>
      </g>
     </g>
     <g id="text_12">
      <text style="font-size: 8px; font-family: 'Arial'; text-anchor: end" x="30.550781" y="41.3575" transform="rotate(-0 30.550781 41.3575)">0.6</text>
     </g>
    </g>
    <g id="ytick_8">
     <g id="line2d_12">
      <g>
       <use xlink:href="#m6a825308a1" x="36.050781" y="10.063125" style="stroke: #000000; stroke-width: 0.5"/>
      </g>
     </g>
     <g id="text_13">
      <text style="font-size: 8px; font-family: 'Arial'; text-anchor: end" x="30.550781" y="12.92625" transform="rotate(-0 30.550781 12.92625)">0.7</text>
     </g>
    </g>
    <g id="text_14">
     <text style="font-size: 9px; font-family: 'Arial'; text-anchor: middle" x="13.642031" y="109.5725" transform="rotate(-90 13.642031 109.5725)">Switch rate</text>
    </g>
   </g>
   <g id="patch_3">
    <path d="M 36.050781 209.081875 
L 36.050781 10.063125 
" style="fill: none; stroke: #000000; stroke-width: 0.5; stroke-linejoin: miter; stroke-linecap: square"/>
   </g>
   <g id="patch_4">
    <path d="M 36.050781 209.081875 
L 226.983581 209.081875 
" style="fill: none; stroke: #000000; stroke-width: 0.5; stroke-linejoin: miter; stroke-linecap: square"/>
   </g>
   <g id="line2d_13">
    <path d="M 102.587969 192.004491 
L 160.446393 193.127143 
L 218.304818 187.216919 
" clip-path="url(#pbd5794a0f7)" style="fill: none; stroke: #1abc9c; stroke-width: 1.6; stroke-linecap: square"/>
    <defs>
     <path id="m5277fef51b" d="M 0 3.25 
C 0.86191 3.25 1.688635 2.907559 2.298097 2.298097 
C 2.907559 1.688635 3.25 0.86191 3.25 0 
C 3.25 -0.86191 2.907559 -1.688635 2.298097 -2.298097 
C 1.688635 -2.907559 0.86191 -3.25 0 -3.25 
C -0.86191 -3.25 -1.688635 -2.907559 -2.298097 -2.298097 
C -2.907559 -1.688635 -3.25 -0.86191 -3.25 0 
C -3.25 0.86191 -2.907559 1.688635 -2.298097 2.298097 
C -1.688635 2.907559 -0.86191 3.25 0 3.25 
z
" style="stroke: #1abc9c; stroke-width: 1.3"/>
    </defs>
    <g clip-path="url(#pbd5794a0f7)">
     <use xlink:href="#m5277fef51b" x="102.587969" y="192.004491" style="fill: #1abc9c; stroke: #1abc9c; stroke-width: 1.3"/>
     <use xlink:href="#m5277fef51b" x="160.446393" y="193.127143" style="fill: #1abc9c; stroke: #1abc9c; stroke-width: 1.3"/>
     <use xlink:href="#m5277fef51b" x="218.304818" y="187.216919" style="fill: #1abc9c; stroke: #1abc9c; stroke-width: 1.3"/>
    </g>
   </g>
   <g id="line2d_14">
    <path d="M 44.729545 199.28417 
L 102.587969 199.949789 
L 160.446393 196.762202 
" clip-path="url(#pbd5794a0f7)" style="fill: none; stroke-dasharray: 5.92,2.56; stroke-dashoffset: 0; stroke: #1abc9c; stroke-width: 1.6"/>
    <defs>
     <path id="mf53eaafc2a" d="M -3.25 3.25 
L 3.25 3.25 
L 3.25 -3.25 
L -3.25 -3.25 
z
" style="stroke: #1abc9c; stroke-width: 1.3; stroke-linejoin: miter"/>
    </defs>
    <g clip-path="url(#pbd5794a0f7)">
     <use xlink:href="#mf53eaafc2a" x="44.729545" y="199.28417" style="fill: #ffffff; stroke: #1abc9c; stroke-width: 1.3; stroke-linejoin: miter"/>
     <use xlink:href="#mf53eaafc2a" x="102.587969" y="199.949789" style="fill: #ffffff; stroke: #1abc9c; stroke-width: 1.3; stroke-linejoin: miter"/>
     <use xlink:href="#mf53eaafc2a" x="160.446393" y="196.762202" style="fill: #ffffff; stroke: #1abc9c; stroke-width: 1.3; stroke-linejoin: miter"/>
    </g>
   </g>
   <g id="line2d_15">
    <path d="M 102.587969 121.649916 
L 160.446393 121.660698 
L 218.304818 135.432663 
" clip-path="url(#pbd5794a0f7)" style="fill: none; stroke: #f39c12; stroke-width: 1.6; stroke-linecap: square"/>
    <defs>
     <path id="m266c99d6db" d="M 0 3.25 
C 0.86191 3.25 1.688635 2.907559 2.298097 2.298097 
C 2.907559 1.688635 3.25 0.86191 3.25 0 
C 3.25 -0.86191 2.907559 -1.688635 2.298097 -2.298097 
C 1.688635 -2.907559 0.86191 -3.25 0 -3.25 
C -0.86191 -3.25 -1.688635 -2.907559 -2.298097 -2.298097 
C -2.907559 -1.688635 -3.25 -0.86191 -3.25 0 
C -3.25 0.86191 -2.907559 1.688635 -2.298097 2.298097 
C -1.688635 2.907559 -0.86191 3.25 0 3.25 
z
" style="stroke: #f39c12; stroke-width: 1.3"/>
    </defs>
    <g clip-path="url(#pbd5794a0f7)">
     <use xlink:href="#m266c99d6db" x="102.587969" y="121.649916" style="fill: #f39c12; stroke: #f39c12; stroke-width: 1.3"/>
     <use xlink:href="#m266c99d6db" x="160.446393" y="121.660698" style="fill: #f39c12; stroke: #f39c12; stroke-width: 1.3"/>
     <use xlink:href="#m266c99d6db" x="218.304818" y="135.432663" style="fill: #f39c12; stroke: #f39c12; stroke-width: 1.3"/>
    </g>
   </g>
   <g id="line2d_16">
    <path d="M 44.729545 163.48206 
L 102.587969 157.205172 
L 160.446393 144.590005 
" clip-path="url(#pbd5794a0f7)" style="fill: none; stroke-dasharray: 5.92,2.56; stroke-dashoffset: 0; stroke: #f39c12; stroke-width: 1.6"/>
    <defs>
     <path id="m3bbf822b27" d="M -3.25 3.25 
L 3.25 3.25 
L 3.25 -3.25 
L -3.25 -3.25 
z
" style="stroke: #f39c12; stroke-width: 1.3; stroke-linejoin: miter"/>
    </defs>
    <g clip-path="url(#pbd5794a0f7)">
     <use xlink:href="#m3bbf822b27" x="44.729545" y="163.48206" style="fill: #ffffff; stroke: #f39c12; stroke-width: 1.3; stroke-linejoin: miter"/>
     <use xlink:href="#m3bbf822b27" x="102.587969" y="157.205172" style="fill: #ffffff; stroke: #f39c12; stroke-width: 1.3; stroke-linejoin: miter"/>
     <use xlink:href="#m3bbf822b27" x="160.446393" y="144.590005" style="fill: #ffffff; stroke: #f39c12; stroke-width: 1.3; stroke-linejoin: miter"/>
    </g>
   </g>
   <g id="line2d_17">
    <path d="M 102.587969 85.586928 
L 160.446393 39.915938 
L 218.304818 22.101582 
" clip-path="url(#pbd5794a0f7)" style="fill: none; stroke: #7f8c8d; stroke-width: 1.6; stroke-linecap: square"/>
    <defs>
     <path id="m7bb28d12cf" d="M 0 3.25 
C 0.86191 3.25 1.688635 2.907559 2.298097 2.298097 
C 2.907559 1.688635 3.25 0.86191 3.25 0 
C 3.25 -0.86191 2.907559 -1.688635 2.298097 -2.298097 
C 1.688635 -2.907559 0.86191 -3.25 0 -3.25 
C -0.86191 -3.25 -1.688635 -2.907559 -2.298097 -2.298097 
C -2.907559 -1.688635 -3.25 -0.86191 -3.25 0 
C -3.25 0.86191 -2.907559 1.688635 -2.298097 2.298097 
C -1.688635 2.907559 -0.86191 3.25 0 3.25 
z
" style="stroke: #7f8c8d; stroke-width: 1.3"/>
    </defs>
    <g clip-path="url(#pbd5794a0f7)">
     <use xlink:href="#m7bb28d12cf" x="102.587969" y="85.586928" style="fill: #7f8c8d; stroke: #7f8c8d; stroke-width: 1.3"/>
     <use xlink:href="#m7bb28d12cf" x="160.446393" y="39.915938" style="fill: #7f8c8d; stroke: #7f8c8d; stroke-width: 1.3"/>
     <use xlink:href="#m7bb28d12cf" x="218.304818" y="22.101582" style="fill: #7f8c8d; stroke: #7f8c8d; stroke-width: 1.3"/>
    </g>
   </g>
   <g id="line2d_18">
    <path d="M 44.729545 152.292651 
L 102.587969 122.434256 
L 160.446393 96.511444 
" clip-path="url(#pbd5794a0f7)" style="fill: none; stroke-dasharray: 5.92,2.56; stroke-dashoffset: 0; stroke: #7f8c8d; stroke-width: 1.6"/>
    <defs>
     <path id="m075089d019" d="M -3.25 3.25 
L 3.25 3.25 
L 3.25 -3.25 
L -3.25 -3.25 
z
" style="stroke: #7f8c8d; stroke-width: 1.3; stroke-linejoin: miter"/>
    </defs>
    <g clip-path="url(#pbd5794a0f7)">
     <use xlink:href="#m075089d019" x="44.729545" y="152.292651" style="fill: #ffffff; stroke: #7f8c8d; stroke-width: 1.3; stroke-linejoin: miter"/>
     <use xlink:href="#m075089d019" x="102.587969" y="122.434256" style="fill: #ffffff; stroke: #7f8c8d; stroke-width: 1.3; stroke-linejoin: miter"/>
     <use xlink:href="#m075089d019" x="160.446393" y="96.511444" style="fill: #ffffff; stroke: #7f8c8d; stroke-width: 1.3; stroke-linejoin: miter"/>
    </g>
   </g>
   <g id="line2d_19">
    <path d="M 102.587969 125.121889 
L 160.446393 131.778428 
L 218.304818 121.434811 
" clip-path="url(#pbd5794a0f7)" style="fill: none; stroke: #2980b9; stroke-width: 1.6; stroke-linecap: square"/>
    <defs>
     <path id="m1cdf7fe1ea" d="M 0 3.25 
C 0.86191 3.25 1.688635 2.907559 2.298097 2.298097 
C 2.907559 1.688635 3.25 0.86191 3.25 0 
C 3.25 -0.86191 2.907559 -1.688635 2.298097 -2.298097 
C 1.688635 -2.907559 0.86191 -3.25 0 -3.25 
C -0.86191 -3.25 -1.688635 -2.907559 -2.298097 -2.298097 
C -2.907559 -1.688635 -3.25 -0.86191 -3.25 0 
C -3.25 0.86191 -2.907559 1.688635 -2.298097 2.298097 
C -1.688635 2.907559 -0.86191 3.25 0 3.25 
z
" style="stroke: #2980b9; stroke-width: 1.3"/>
    </defs>
    <g clip-path="url(#pbd5794a0f7)">
     <use xlink:href="#m1cdf7fe1ea" x="102.587969" y="125.121889" style="fill: #2980b9; stroke: #2980b9; stroke-width: 1.3"/>
     <use xlink:href="#m1cdf7fe1ea" x="160.446393" y="131.778428" style="fill: #2980b9; stroke: #2980b9; stroke-width: 1.3"/>
     <use xlink:href="#m1cdf7fe1ea" x="218.304818" y="121.434811" style="fill: #2980b9; stroke: #2980b9; stroke-width: 1.3"/>
    </g>
   </g>
   <g id="line2d_20">
    <path d="M 44.729545 175.409936 
L 102.587969 159.344119 
L 160.446393 146.447668 
" clip-path="url(#pbd5794a0f7)" style="fill: none; stroke-dasharray: 5.92,2.56; stroke-dashoffset: 0; stroke: #2980b9; stroke-width: 1.6"/>
    <defs>
     <path id="m0efca5f5dc" d="M -3.25 3.25 
L 3.25 3.25 
L 3.25 -3.25 
L -3.25 -3.25 
z
" style="stroke: #2980b9; stroke-width: 1.3; stroke-linejoin: miter"/>
    </defs>
    <g clip-path="url(#pbd5794a0f7)">
     <use xlink:href="#m0efca5f5dc" x="44.729545" y="175.409936" style="fill: #ffffff; stroke: #2980b9; stroke-width: 1.3; stroke-linejoin: miter"/>
     <use xlink:href="#m0efca5f5dc" x="102.587969" y="159.344119" style="fill: #ffffff; stroke: #2980b9; stroke-width: 1.3; stroke-linejoin: miter"/>
     <use xlink:href="#m0efca5f5dc" x="160.446393" y="146.447668" style="fill: #ffffff; stroke: #2980b9; stroke-width: 1.3; stroke-linejoin: miter"/>
    </g>
   </g>
   <g id="line2d_21">
    <path d="M 102.587969 133.590001 
L 160.446393 134.307951 
L 218.304818 124.238793 
" clip-path="url(#pbd5794a0f7)" style="fill: none; stroke: #e74c3c; stroke-width: 1.6; stroke-linecap: square"/>
    <defs>
     <path id="m9b6ef2b61d" d="M 0 3.25 
C 0.86191 3.25 1.688635 2.907559 2.298097 2.298097 
C 2.907559 1.688635 3.25 0.86191 3.25 0 
C 3.25 -0.86191 2.907559 -1.688635 2.298097 -2.298097 
C 1.688635 -2.907559 0.86191 -3.25 0 -3.25 
C -0.86191 -3.25 -1.688635 -2.907559 -2.298097 -2.298097 
C -2.907559 -1.688635 -3.25 -0.86191 -3.25 0 
C -3.25 0.86191 -2.907559 1.688635 -2.298097 2.298097 
C -1.688635 2.907559 -0.86191 3.25 0 3.25 
z
" style="stroke: #e74c3c; stroke-width: 1.3"/>
    </defs>
    <g clip-path="url(#pbd5794a0f7)">
     <use xlink:href="#m9b6ef2b61d" x="102.587969" y="133.590001" style="fill: #e74c3c; stroke: #e74c3c; stroke-width: 1.3"/>
     <use xlink:href="#m9b6ef2b61d" x="160.446393" y="134.307951" style="fill: #e74c3c; stroke: #e74c3c; stroke-width: 1.3"/>
     <use xlink:href="#m9b6ef2b61d" x="218.304818" y="124.238793" style="fill: #e74c3c; stroke: #e74c3c; stroke-width: 1.3"/>
    </g>
   </g>
   <g id="line2d_22">
    <path d="M 44.729545 171.949894 
L 102.587969 161.239609 
L 160.446393 144.180542 
" clip-path="url(#pbd5794a0f7)" style="fill: none; stroke-dasharray: 5.92,2.56; stroke-dashoffset: 0; stroke: #e74c3c; stroke-width: 1.6"/>
    <defs>
     <path id="mcda9f7512b" d="M -3.25 3.25 
L 3.25 3.25 
L 3.25 -3.25 
L -3.25 -3.25 
z
" style="stroke: #e74c3c; stroke-width: 1.3; stroke-linejoin: miter"/>
    </defs>
    <g clip-path="url(#pbd5794a0f7)">
     <use xlink:href="#mcda9f7512b" x="44.729545" y="171.949894" style="fill: #ffffff; stroke: #e74c3c; stroke-width: 1.3; stroke-linejoin: miter"/>
     <use xlink:href="#mcda9f7512b" x="102.587969" y="161.239609" style="fill: #ffffff; stroke: #e74c3c; stroke-width: 1.3; stroke-linejoin: miter"/>
     <use xlink:href="#mcda9f7512b" x="160.446393" y="144.180542" style="fill: #ffffff; stroke: #e74c3c; stroke-width: 1.3; stroke-linejoin: miter"/>
    </g>
   </g>
   <g id="legend_1">
    <g id="text_15">
     <text style="font-size: 7px; font-family: 'Arial'; text-anchor: start" x="270.440284" y="21.373594" transform="rotate(-0 270.440284 21.373594)">State</text>
    </g>
    <g id="line2d_23">
     <defs>
      <path id="m13e0ab6a2f" d="M 0 3 
C 0.795609 3 1.55874 2.683901 2.12132 2.12132 
C 2.683901 1.55874 3 0.795609 3 0 
C 3 -0.795609 2.683901 -1.55874 2.12132 -2.12132 
C 1.55874 -2.683901 0.795609 -3 0 -3 
C -0.795609 -3 -1.55874 -2.683901 -2.12132 -2.12132 
C -2.683901 -1.55874 -3 -0.795609 -3 0 
C -3 0.795609 -2.683901 1.55874 -2.12132 2.12132 
C -1.55874 2.683901 -0.795609 3 0 3 
z
" style="stroke: #1abc9c"/>
     </defs>
     <g>
      <use xlink:href="#m13e0ab6a2f" x="244.102237" y="28.825313" style="fill: #1abc9c; stroke: #1abc9c"/>
     </g>
    </g>
    <g id="text_16">
     <text style="font-size: 7px; font-family: 'Arial'; text-anchor: start" x="256.702237" y="31.275313" transform="rotate(-0 256.702237 31.275313)">Exploitation</text>
    </g>
    <g id="line2d_24">
     <defs>
      <path id="m59536a6a50" d="M 0 3 
C 0.795609 3 1.55874 2.683901 2.12132 2.12132 
C 2.683901 1.55874 3 0.795609 3 0 
C 3 -0.795609 2.683901 -1.55874 2.12132 -2.12132 
C 1.55874 -2.683901 0.795609 -3 0 -3 
C -0.795609 -3 -1.55874 -2.683901 -2.12132 -2.12132 
C -2.683901 -1.55874 -3 -0.795609 -3 0 
C -3 0.795609 -2.683901 1.55874 -2.12132 2.12132 
C -1.55874 2.683901 -0.795609 3 0 3 
z
" style="stroke: #f39c12"/>
     </defs>
     <g>
      <use xlink:href="#m59536a6a50" x="244.102237" y="38.727031" style="fill: #f39c12; stroke: #f39c12"/>
     </g>
    </g>
    <g id="text_17">
     <text style="font-size: 7px; font-family: 'Arial'; text-anchor: start" x="256.702237" y="41.177031" transform="rotate(-0 256.702237 41.177031)">Directed Exploration</text>
    </g>
    <g id="line2d_25">
     <defs>
      <path id="m5f939d7691" d="M 0 3 
C 0.795609 3 1.55874 2.683901 2.12132 2.12132 
C 2.683901 1.55874 3 0.795609 3 0 
C 3 -0.795609 2.683901 -1.55874 2.12132 -2.12132 
C 1.55874 -2.683901 0.795609 -3 0 -3 
C -0.795609 -3 -1.55874 -2.683901 -2.12132 -2.12132 
C -2.683901 -1.55874 -3 -0.795609 -3 0 
C -3 0.795609 -2.683901 1.55874 -2.12132 2.12132 
C -1.55874 2.683901 -0.795609 3 0 3 
z
" style="stroke: #7f8c8d"/>
     </defs>
     <g>
      <use xlink:href="#m5f939d7691" x="244.102237" y="48.62875" style="fill: #7f8c8d; stroke: #7f8c8d"/>
     </g>
    </g>
    <g id="text_18">
     <text style="font-size: 7px; font-family: 'Arial'; text-anchor: start" x="256.702237" y="51.07875" transform="rotate(-0 256.702237 51.07875)">Random Exploration</text>
    </g>
    <g id="line2d_26">
     <defs>
      <path id="m5b09fc0beb" d="M 0 3 
C 0.795609 3 1.55874 2.683901 2.12132 2.12132 
C 2.683901 1.55874 3 0.795609 3 0 
C 3 -0.795609 2.683901 -1.55874 2.12132 -2.12132 
C 1.55874 -2.683901 0.795609 -3 0 -3 
C -0.795609 -3 -1.55874 -2.683901 -2.12132 -2.12132 
C -2.683901 -1.55874 -3 -0.795609 -3 0 
C -3 0.795609 -2.683901 1.55874 -2.12132 2.12132 
C -1.55874 2.683901 -0.795609 3 0 3 
z
" style="stroke: #2980b9"/>
     </defs>
     <g>
      <use xlink:href="#m5b09fc0beb" x="244.102237" y="58.530469" style="fill: #2980b9; stroke: #2980b9"/>
     </g>
    </g>
    <g id="text_19">
     <text style="font-size: 7px; font-family: 'Arial'; text-anchor: start" x="256.702237" y="60.980469" transform="rotate(-0 256.702237 60.980469)">Left Bias</text>
    </g>
    <g id="line2d_27">
     <defs>
      <path id="m18632ce508" d="M 0 3 
C 0.795609 3 1.55874 2.683901 2.12132 2.12132 
C 2.683901 1.55874 3 0.795609 3 0 
C 3 -0.795609 2.683901 -1.55874 2.12132 -2.12132 
C 1.55874 -2.683901 0.795609 -3 0 -3 
C -0.795609 -3 -1.55874 -2.683901 -2.12132 -2.12132 
C -2.683901 -1.55874 -3 -0.795609 -3 0 
C -3 0.795609 -2.683901 1.55874 -2.12132 2.12132 
C -1.55874 2.683901 -0.795609 3 0 3 
z
" style="stroke: #e74c3c"/>
     </defs>
     <g>
      <use xlink:href="#m18632ce508" x="244.102237" y="68.432188" style="fill: #e74c3c; stroke: #e74c3c"/>
     </g>
    </g>
    <g id="text_20">
     <text style="font-size: 7px; font-family: 'Arial'; text-anchor: start" x="256.702237" y="70.882188" transform="rotate(-0 256.702237 70.882188)">Right Bias</text>
    </g>
   </g>
   <g id="legend_2">
    <g id="text_21">
     <text style="font-size: 7px; font-family: 'Arial'; text-anchor: start" x="250.008487" y="156.791656" transform="rotate(-0 250.008487 156.791656)">Species</text>
    </g>
    <g id="line2d_28">
     <path d="M 237.102237 164.243375 
L 244.102237 164.243375 
L 251.102237 164.243375 
" style="fill: none; stroke: #000000; stroke-width: 0.5; stroke-linecap: square"/>
     <defs>
      <path id="mf9e94a6b75" d="M 0 3 
C 0.795609 3 1.55874 2.683901 2.12132 2.12132 
C 2.683901 1.55874 3 0.795609 3 0 
C 3 -0.795609 2.683901 -1.55874 2.12132 -2.12132 
C 1.55874 -2.683901 0.795609 -3 0 -3 
C -0.795609 -3 -1.55874 -2.683901 -2.12132 -2.12132 
C -2.683901 -1.55874 -3 -0.795609 -3 0 
C -3 0.795609 -2.683901 1.55874 -2.12132 2.12132 
C -1.55874 2.683901 -0.795609 3 0 3 
z
" style="stroke: #000000"/>
     </defs>
     <g>
      <use xlink:href="#mf9e94a6b75" x="244.102237" y="164.243375" style="stroke: #000000"/>
     </g>
    </g>
    <g id="text_22">
     <text style="font-size: 7px; font-family: 'Arial'; text-anchor: start" x="256.702237" y="166.693375" transform="rotate(-0 256.702237 166.693375)">marmoset</text>
    </g>
    <g id="line2d_29">
     <path d="M 237.102237 174.145094 
L 244.102237 174.145094 
L 251.102237 174.145094 
" style="fill: none; stroke-dasharray: 1.85,0.8; stroke-dashoffset: 0; stroke: #000000; stroke-width: 0.5"/>
     <defs>
      <path id="m38ce8200fa" d="M -3 3 
L 3 3 
L 3 -3 
L -3 -3 
z
" style="stroke: #000000; stroke-linejoin: miter"/>
     </defs>
     <g>
      <use xlink:href="#m38ce8200fa" x="244.102237" y="174.145094" style="fill: #ffffff; stroke: #000000; stroke-linejoin: miter"/>
     </g>
    </g>
    <g id="text_23">
     <text style="font-size: 7px; font-family: 'Arial'; text-anchor: start" x="256.702237" y="176.595094" transform="rotate(-0 256.702237 176.595094)">mouse</text>
    </g>
   </g>
  </g>
 </g>
 <defs>
  <clipPath id="pbd5794a0f7">
   <rect x="36.050781" y="10.063125" width="190.9328" height="199.01875"/>
  </clipPath>
 </defs>
</svg>
