<?xml version="1.0" encoding="utf-8" standalone="no"?>
<!DOCTYPE svg PUBLIC "-//W3C//DTD SVG 1.1//EN"
  "http://www.w3.org/Graphics/SVG/1.1/DTD/svg11.dtd">
<svg xmlns:xlink="http://www.w3.org/1999/xlink" width="357.2125pt" height="170.114531pt" viewBox="0 0 357.2125 170.114531" xmlns="http://www.w3.org/2000/svg" version="1.1">
 <metadata>
  <rdf:RDF xmlns:dc="http://purl.org/dc/elements/1.1/" xmlns:cc="http://creativecommons.org/ns#" xmlns:rdf="http://www.w3.org/1999/02/22-rdf-syntax-ns#">
   <cc:Work>
    <dc:type rdf:resource="http://purl.org/dc/dcmitype/StillImage"/>
    <dc:date>2026-09-18T00:44:05.034839</dc:date>
    <dc:format>image/svg+xml</dc:format>
    <dc:creator>
     <cc:Agent>
      <dc:title>Matplotlib v3.10.9, https://matplotlib.org/</dc:title>
     </cc:Agent>
    </dc:creator>
   </cc:Work>
  </rdf:RDF>
 </metadata>
 <defs>
  <style type="text/css">*{stroke-linejoin: round; stroke-linecap: butt}</style>
 </defs>
 <g id="figure_1">
  <g id="patch_1">
   <path d="M 0 170.114531 
L 357.2125 170.114531 
L 357.2125 0 
L 0 0 
z
" style="fill: #ffffff"/>
  </g>
  <g id="axes_1">
   <g id="patch_2">
    <path d="M 39.77625 138.782031 
L 205.404712 138.782031 
L 205.404712 19.642031 
L 39.77625 19.642031 
z
" style="fill: #ffffff"/>
   </g>
   <g id="FillBetweenPolyCollection_1">
    <defs>
     <path id="m492595eca7" d="M 47.304816 -102.573262 
L 47.304816 -72.633963 
L 57.342905 -69.432538 
L 67.380994 -71.494818 
L 77.419082 -67.05396 
L 87.457171 -74.303254 
L 97.495259 -68.869258 
L 107.533348 -116.549172 
L 117.571436 -112.836332 
L 127.609525 -97.771131 
L 137.647614 -81.960061 
L 147.685702 -69.365871 
L 157.723791 -66.668228 
L 167.761879 -62.781912 
L 177.799968 -61.316377 
L 187.838057 -62.544736 
L 197.876145 -65.44446 
L 197.876145 -81.725922 
L 197.876145 -81.725922 
L 187.838057 -82.921435 
L 177.799968 -70.432463 
L 167.761879 -79.224893 
L 157.723791 -79.071039 
L 147.685702 -79.836948 
L 137.647614 -93.401629 
L 127.609525 -107.683155 
L 117.571436 -132.580231 
L 107.533348 -145.057045 
L 97.495259 -84.957061 
L 87.457171 -93.65844 
L 77.419082 -82.715041 
L 67.380994 -83.893822 
L 57.342905 -90.006998 
L 47.304816 -102.573262 
z
" style="stroke: #8e44ad; stroke-opacity: 0.2"/>
    </defs>
    <g clip-path="url(#p35293078b8)">
     <use xlink:href="#m492595eca7" x="0" y="170.114531" style="fill: #8e44ad; fill-opacity: 0.2; stroke: #8e44ad; stroke-opacity: 0.2"/>
    </g>
   </g>
   <g id="FillBetweenPolyCollection_2">
    <defs>
     <path id="m4eded5270b" d="M 47.304816 -44.353455 
L 47.304816 -38.601246 
L 57.342905 -39.879763 
L 67.380994 -39.310238 
L 77.419082 -36.974794 
L 87.457171 -36.747955 
L 97.495259 -41.129023 
L 107.533348 -59.954597 
L 117.571436 -95.740951 
L 127.609525 -99.215551 
L 137.647614 -90.864359 
L 147.685702 -75.849905 
L 157.723791 -67.046434 
L 167.761879 -56.18341 
L 177.799968 -57.896948 
L 187.838057 -52.424291 
L 197.876145 -47.282165 
L 197.876145 -57.701809 
L 197.876145 -57.701809 
L 187.838057 -59.583542 
L 177.799968 -62.458774 
L 167.761879 -62.348354 
L 157.723791 -74.350513 
L 147.685702 -83.973134 
L 137.647614 -98.775659 
L 127.609525 -105.74239 
L 117.571436 -108.244017 
L 107.533348 -75.756811 
L 97.495259 -44.597139 
L 87.457171 -43.281573 
L 77.419082 -41.721183 
L 67.380994 -47.656913 
L 57.342905 -45.83192 
L 47.304816 -44.353455 
z
" style="stroke: #16a085; stroke-opacity: 0.2"/>
    </defs>
    <g clip-path="url(#p35293078b8)">
     <use xlink:href="#m4eded5270b" x="0" y="170.114531" style="fill: #16a085; fill-opacity: 0.2; stroke: #16a085; stroke-opacity: 0.2"/>
    </g>
   </g>
   <g id="matplotlib.axis_1">
    <g id="xtick_1">
     <g id="line2d_1">
      <defs>
       <path id="m8eae2ea384" d="M 0 0 
L 0 2 
" style="stroke: #000000; stroke-width: 0.5"/>
      </defs>
      <g>
       <use xlink:href="#m8eae2ea384" x="47.304816" y="138.782031" style="stroke: #000000; stroke-width: 0.5"/>
      </g>
     </g>
     <g id="text_1">
      <text style="font-size: 8px; font-family: 'Arial'; text-anchor: middle" x="47.304816" y="150.008281" transform="rotate(-0 47.304816 150.008281)">−5</text>
     </g>
    </g>
    <g id="xtick_2">
     <g id="line2d_2">
      <g>
       <use xlink:href="#m8eae2ea384" x="97.495259" y="138.782031" style="stroke: #000000; stroke-width: 0.5"/>
      </g>
     </g>
     <g id="text_2">
      <text style="font-size: 8px; font-family: 'Arial'; text-anchor: middle" x="97.495259" y="150.008281" transform="rotate(-0 97.495259 150.008281)">0</text>
     </g>
    </g>
    <g id="xtick_3">
     <g id="line2d_3">
      <g>
       <use xlink:href="#m8eae2ea384" x="147.685702" y="138.782031" style="stroke: #000000; stroke-width: 0.5"/>
      </g>
     </g>
     <g id="text_3">
      <text style="font-size: 8px; font-family: 'Arial'; text-anchor: middle" x="147.685702" y="150.008281" transform="rotate(-0 147.685702 150.008281)">5</text>
     </g>
    </g>
    <g id="xtick_4">
     <g id="line2d_4">
      <g>
       <use xlink:href="#m8eae2ea384" x="197.876145" y="138.782031" style="stroke: #000000; stroke-width: 0.5"/>
      </g>
     </g>
     <g id="text_4">
      <text style="font-size: 8px; font-family: 'Arial'; text-anchor: middle" x="197.876145" y="150.008281" transform="rotate(-0 197.876145 150.008281)">10</text>
     </g>
    </g>
    <g id="text_5">
     <text style="font-size: 8px; font-family: 'Arial'; text-anchor: middle" x="122.590481" y="161.324531" transform="rotate(-0 122.590481 161.324531)">trial relative to reversal</text>
    </g>
   </g>
   <g id="matplotlib.axis_2">
    <g id="ytick_1">
     <g id="line2d_5">
      <defs>
       <path id="mc74ad585b8" d="M 0 0 
L -2 0 
" style="stroke: #000000; stroke-width: 0.5"/>
      </defs>
      <g>
       <use xlink:href="#mc74ad585b8" x="39.77625" y="117.826007" style="stroke: #000000; stroke-width: 0.5"/>
      </g>
     </g>
     <g id="text_6">
      <text style="font-size: 8px; font-family: 'Arial'; text-anchor: end" x="34.27625" y="120.689132" transform="rotate(-0 34.27625 120.689132)">0.10</text>
     </g>
    </g>
    <g id="ytick_2">
     <g id="line2d_6">
      <g>
       <use xlink:href="#mc74ad585b8" x="39.77625" y="94.50682" style="stroke: #000000; stroke-width: 0.5"/>
      </g>
     </g>
     <g id="text_7">
      <text style="font-size: 8px; font-family: 'Arial'; text-anchor: end" x="34.27625" y="97.369945" transform="rotate(-0 34.27625 97.369945)">0.15</text>
     </g>
    </g>
    <g id="ytick_3">
     <g id="line2d_7">
      <g>
       <use xlink:href="#mc74ad585b8" x="39.77625" y="71.187632" style="stroke: #000000; stroke-width: 0.5"/>
      </g>
     </g>
     <g id="text_8">
      <text style="font-size: 8px; font-family: 'Arial'; text-anchor: end" x="34.27625" y="74.050757" transform="rotate(-0 34.27625 74.050757)">0.20</text>
     </g>
    </g>
    <g id="ytick_4">
     <g id="line2d_8">
      <g>
       <use xlink:href="#mc74ad585b8" x="39.77625" y="47.868444" style="stroke: #000000; stroke-width: 0.5"/>
      </g>
     </g>
     <g id="text_9">
      <text style="font-size: 8px; font-family: 'Arial'; text-anchor: end" x="34.27625" y="50.731569" transform="rotate(-0 34.27625 50.731569)">0.25</text>
     </g>
    </g>
    <g id="ytick_5">
     <g id="line2d_9">
      <g>
       <use xlink:href="#mc74ad585b8" x="39.77625" y="24.549256" style="stroke: #000000; stroke-width: 0.5"/>
      </g>
     </g>
     <g id="text_10">
      <text style="font-size: 8px; font-family: 'Arial'; text-anchor: end" x="34.27625" y="27.412381" transform="rotate(-0 34.27625 27.412381)">0.30</text>
     </g>
    </g>
    <g id="text_11">
     <text style="font-size: 8px; font-family: 'Arial'; text-anchor: middle" x="13.02375" y="79.212031" transform="rotate(-90 13.02375 79.212031)">p(switch)</text>
    </g>
   </g>
   <g id="line2d_10">
    <path d="M 47.304816 82.510919 
L 57.342905 90.394763 
L 67.380994 92.420212 
L 77.419082 95.230031 
L 87.457171 86.133684 
L 97.495259 93.201372 
L 107.533348 39.311423 
L 117.571436 47.40625 
L 127.609525 67.387388 
L 137.647614 82.433686 
L 147.685702 95.513122 
L 157.723791 97.244898 
L 167.761879 99.111129 
L 177.799968 104.240111 
L 187.838057 97.381445 
L 197.876145 96.52934 
" clip-path="url(#p35293078b8)" style="fill: none; stroke: #8e44ad; stroke-width: 1.2; stroke-linecap: square"/>
   </g>
   <g id="line2d_11">
    <path d="M 47.304816 128.637181 
L 57.342905 127.25869 
L 67.380994 126.630956 
L 77.419082 130.766543 
L 87.457171 130.099768 
L 97.495259 127.25145 
L 107.533348 102.258827 
L 117.571436 68.122048 
L 127.609525 67.635561 
L 137.647614 75.294522 
L 147.685702 90.203012 
L 157.723791 99.416058 
L 167.761879 110.848649 
L 177.799968 109.93667 
L 187.838057 114.110615 
L 197.876145 117.622544 
" clip-path="url(#p35293078b8)" style="fill: none; stroke-dasharray: 4.44,1.92; stroke-dashoffset: 0; stroke: #16a085; stroke-width: 1.2"/>
   </g>
   <g id="line2d_12">
    <path d="M 92.476215 138.782031 
L 92.476215 19.642031 
" clip-path="url(#p35293078b8)" style="fill: none; stroke-dasharray: 0.6,0.99; stroke-dashoffset: 0; stroke: #000000; stroke-opacity: 0.6; stroke-width: 0.6"/>
   </g>
   <g id="patch_3">
    <path d="M 39.77625 138.782031 
L 39.77625 19.642031 
" style="fill: none; stroke: #000000; stroke-width: 0.5; stroke-linejoin: miter; stroke-linecap: square"/>
   </g>
   <g id="patch_4">
    <path d="M 39.77625 138.782031 
L 205.404712 138.782031 
" style="fill: none; stroke: #000000; stroke-width: 0.5; stroke-linejoin: miter; stroke-linecap: square"/>
   </g>
   <g id="legend_1">
    <g id="line2d_13">
     <path d="M 148.389712 28.5025 
L 155.389712 28.5025 
L 162.389712 28.5025 
" style="fill: none; stroke: #8e44ad; stroke-width: 1.2; stroke-linecap: square"/>
    </g>
    <g id="text_12">
     <text style="font-size: 7px; font-family: 'Arial'; text-anchor: start" x="167.989712" y="30.9525" transform="rotate(-0 167.989712 30.9525)">marmoset</text>
    </g>
    <g id="line2d_14">
     <path d="M 148.389712 38.404219 
L 155.389712 38.404219 
L 162.389712 38.404219 
" style="fill: none; stroke-dasharray: 4.44,1.92; stroke-dashoffset: 0; stroke: #16a085; stroke-width: 1.2"/>
    </g>
    <g id="text_13">
     <text style="font-size: 7px; font-family: 'Arial'; text-anchor: start" x="167.989712" y="40.854219" transform="rotate(-0 167.989712 40.854219)">mouse</text>
    </g>
   </g>
  </g>
  <g id="axes_2">
   <g id="patch_5">
    <path d="M 246.494712 138.782031 
L 350.0125 138.782031 
L 350.0125 19.642031 
L 246.494712 19.642031 
z
" style="fill: #ffffff"/>
   </g>
   <g id="matplotlib.axis_3">
    <g id="xtick_5">
     <g id="line2d_15">
      <g>
       <use xlink:href="#m8eae2ea384" x="272.374159" y="138.782031" style="stroke: #000000; stroke-width: 0.5"/>
      </g>
     </g>
     <g id="text_14">
      <text style="font-size: 8px; font-family: 'Arial'; text-anchor: middle" x="272.374159" y="150.008281" transform="rotate(-0 272.374159 150.008281)">marmoset</text>
     </g>
    </g>
    <g id="xtick_6">
     <g id="line2d_16">
      <g>
       <use xlink:href="#m8eae2ea384" x="324.133053" y="138.782031" style="stroke: #000000; stroke-width: 0.5"/>
      </g>
     </g>
     <g id="text_15">
      <text style="font-size: 8px; font-family: 'Arial'; text-anchor: middle" x="324.133053" y="150.008281" transform="rotate(-0 324.133053 150.008281)">mouse</text>
     </g>
    </g>
   </g>
   <g id="matplotlib.axis_4">
    <g id="ytick_6">
     <g id="line2d_17">
      <g>
       <use xlink:href="#mc74ad585b8" x="246.494712" y="128.36119" style="stroke: #000000; stroke-width: 0.5"/>
      </g>
     </g>
     <g id="text_16">
      <text style="font-size: 8px; font-family: 'Arial'; text-anchor: end" x="240.994712" y="131.224315" transform="rotate(-0 240.994712 131.224315)">0.075</text>
     </g>
    </g>
    <g id="ytick_7">
     <g id="line2d_18">
      <g>
       <use xlink:href="#mc74ad585b8" x="246.494712" y="108.385035" style="stroke: #000000; stroke-width: 0.5"/>
      </g>
     </g>
     <g id="text_17">
      <text style="font-size: 8px; font-family: 'Arial'; text-anchor: end" x="240.994712" y="111.24816" transform="rotate(-0 240.994712 111.24816)">0.100</text>
     </g>
    </g>
    <g id="ytick_8">
     <g id="line2d_19">
      <g>
       <use xlink:href="#mc74ad585b8" x="246.494712" y="88.40888" style="stroke: #000000; stroke-width: 0.5"/>
      </g>
     </g>
     <g id="text_18">
      <text style="font-size: 8px; font-family: 'Arial'; text-anchor: end" x="240.994712" y="91.272005" transform="rotate(-0 240.994712 91.272005)">0.125</text>
     </g>
    </g>
    <g id="ytick_9">
     <g id="line2d_20">
      <g>
       <use xlink:href="#mc74ad585b8" x="246.494712" y="68.432725" style="stroke: #000000; stroke-width: 0.5"/>
      </g>
     </g>
     <g id="text_19">
      <text style="font-size: 8px; font-family: 'Arial'; text-anchor: end" x="240.994712" y="71.29585" transform="rotate(-0 240.994712 71.29585)">0.150</text>
     </g>
    </g>
    <g id="ytick_10">
     <g id="line2d_21">
      <g>
       <use xlink:href="#mc74ad585b8" x="246.494712" y="48.45657" style="stroke: #000000; stroke-width: 0.5"/>
      </g>
     </g>
     <g id="text_20">
      <text style="font-size: 8px; font-family: 'Arial'; text-anchor: end" x="240.994712" y="51.319695" transform="rotate(-0 240.994712 51.319695)">0.175</text>
     </g>
    </g>
    <g id="ytick_11">
     <g id="line2d_22">
      <g>
       <use xlink:href="#mc74ad585b8" x="246.494712" y="28.480415" style="stroke: #000000; stroke-width: 0.5"/>
      </g>
     </g>
     <g id="text_21">
      <text style="font-size: 8px; font-family: 'Arial'; text-anchor: end" x="240.994712" y="31.34354" transform="rotate(-0 240.994712 31.34354)">0.200</text>
     </g>
    </g>
    <g id="text_22">
     <text style="font-size: 8px; font-family: 'Arial'; text-anchor: middle" x="215.387212" y="79.212031" transform="rotate(-90 215.387212 79.212031)">mean switch rate</text>
    </g>
   </g>
   <g id="PathCollection_1">
    <defs>
     <path id="m9aa4d0bcc8" d="M 0 2.345208 
C 0.621956 2.345208 1.218523 2.098102 1.658312 1.658312 
C 2.098102 1.218523 2.345208 0.621956 2.345208 0 
C 2.345208 -0.621956 2.098102 -1.218523 1.658312 -1.658312 
C 1.218523 -2.098102 0.621956 -2.345208 0 -2.345208 
C -0.621956 -2.345208 -1.218523 -2.098102 -1.658312 -1.658312 
C -2.098102 -1.218523 -2.345208 -0.621956 -2.345208 0 
C -2.345208 0.621956 -2.098102 1.218523 -1.658312 1.658312 
C -1.218523 2.098102 -0.621956 2.345208 0 2.345208 
z
" style="stroke: #000000; stroke-width: 0.4"/>
    </defs>
    <g clip-path="url(#p43376fa86d)">
     <use xlink:href="#m9aa4d0bcc8" x="272.634465" y="80.25719" style="fill: #8e44ad; stroke: #000000; stroke-width: 0.4"/>
     <use xlink:href="#m9aa4d0bcc8" x="272.100655" y="25.057486" style="fill: #8e44ad; stroke: #000000; stroke-width: 0.4"/>
     <use xlink:href="#m9aa4d0bcc8" x="273.700061" y="26.371716" style="fill: #8e44ad; stroke: #000000; stroke-width: 0.4"/>
     <use xlink:href="#m9aa4d0bcc8" x="272.591339" y="71.530879" style="fill: #8e44ad; stroke: #000000; stroke-width: 0.4"/>
     <use xlink:href="#m9aa4d0bcc8" x="271.265132" y="55.957098" style="fill: #8e44ad; stroke: #000000; stroke-width: 0.4"/>
     <use xlink:href="#m9aa4d0bcc8" x="273.122789" y="81.060586" style="fill: #8e44ad; stroke: #000000; stroke-width: 0.4"/>
    </g>
   </g>
   <g id="PathCollection_2">
    <defs>
     <path id="mc9c7044fac" d="M 0 2.345208 
C 0.621956 2.345208 1.218523 2.098102 1.658312 1.658312 
C 2.098102 1.218523 2.345208 0.621956 2.345208 0 
C 2.345208 -0.621956 2.098102 -1.218523 1.658312 -1.658312 
C 1.218523 -2.098102 0.621956 -2.345208 0 -2.345208 
C -0.621956 -2.345208 -1.218523 -2.098102 -1.658312 -1.658312 
C -2.098102 -1.218523 -2.345208 -0.621956 -2.345208 0 
C -2.345208 0.621956 -2.098102 1.218523 -1.658312 1.658312 
C -1.218523 2.098102 -0.621956 2.345208 0 2.345208 
z
" style="stroke: #000000; stroke-width: 0.4"/>
    </defs>
    <g clip-path="url(#p43376fa86d)">
     <use xlink:href="#mc9c7044fac" x="326.832797" y="130.254299" style="fill: #16a085; stroke: #000000; stroke-width: 0.4"/>
     <use xlink:href="#mc9c7044fac" x="326.093847" y="115.164994" style="fill: #16a085; stroke: #000000; stroke-width: 0.4"/>
     <use xlink:href="#mc9c7044fac" x="322.676071" y="110.965856" style="fill: #16a085; stroke: #000000; stroke-width: 0.4"/>
     <use xlink:href="#mc9c7044fac" x="321.51318" y="130.554684" style="fill: #16a085; stroke: #000000; stroke-width: 0.4"/>
     <use xlink:href="#mc9c7044fac" x="322.842653" y="133.366577" style="fill: #16a085; stroke: #000000; stroke-width: 0.4"/>
     <use xlink:href="#mc9c7044fac" x="324.218612" y="112.349375" style="fill: #16a085; stroke: #000000; stroke-width: 0.4"/>
    </g>
   </g>
   <g id="patch_6">
    <path d="M 246.494712 138.782031 
L 246.494712 19.642031 
" style="fill: none; stroke: #000000; stroke-width: 0.5; stroke-linejoin: miter; stroke-linecap: square"/>
   </g>
   <g id="patch_7">
    <path d="M 246.494712 138.782031 
L 350.0125 138.782031 
" style="fill: none; stroke: #000000; stroke-width: 0.5; stroke-linejoin: miter; stroke-linecap: square"/>
   </g>
   <g id="line2d_23">
    <path d="M 264.092736 56.705826 
L 280.655582 56.705826 
" clip-path="url(#p43376fa86d)" style="fill: none; stroke: #8e44ad; stroke-width: 2.2; stroke-linecap: square"/>
   </g>
   <g id="line2d_24">
    <path d="M 315.85163 122.109297 
L 332.414476 122.109297 
" clip-path="url(#p43376fa86d)" style="fill: none; stroke: #16a085; stroke-width: 2.2; stroke-linecap: square"/>
   </g>
   <g id="text_23">
    <text style="font-size: 9px; font-family: 'Arial'; text-anchor: middle" x="298.253606" y="13.642031" transform="rotate(-0 298.253606 13.642031)">***</text>
   </g>
  </g>
 </g>
 <defs>
  <clipPath id="p35293078b8">
   <rect x="39.77625" y="19.642031" width="165.628462" height="119.14"/>
  </clipPath>
  <clipPath id="p43376fa86d">
   <rect x="246.494712" y="19.642031" width="103.517788" height="119.14"/>
  </clipPath>
 </defs>
</svg>
