<?xml version="1.0" encoding="utf-8" standalone="no"?>
<!DOCTYPE svg PUBLIC "-//W3C//DTD SVG 1.1//EN"
  "http://www.w3.org/Graphics/SVG/1.1/DTD/svg11.dtd">
<svg xmlns:xlink="http://www.w3.org/1999/xlink" width="285.19375pt" height="213.3525pt" viewBox="0 0 285.19375 213.3525" xmlns="http://www.w3.org/2000/svg" version="1.1">
 <metadata>
  <rdf:RDF xmlns:dc="http://purl.org/dc/elements/1.1/" xmlns:cc="http://creativecommons.org/ns#" xmlns:rdf="http://www.w3.org/1999/02/22-rdf-syntax-ns#">
   <cc:Work>
    <dc:type rdf:resource="http://purl.org/dc/dcmitype/StillImage"/>
    <dc:date>2026-09-13T10:31:02.776035</dc:date>
    <dc:format>image/svg+xml</dc:format>
    <dc:creator>
     <cc:Agent>
      <dc:title>Matplotlib v3.10.9, https://matplotlib.org/</dc:title>
     </cc:Agent>
    </dc:creator>
   </cc:Work>
  </rdf:RDF>
 </metadata>
 <defs>
  <style type="text/css">*{stroke-linejoin: round; stroke-linecap: butt}</style>
 </defs>
 <g id="figure_1">
  <g id="patch_1">
   <path d="M 0 213.3525 
L 285.19375 213.3525 
L 285.19375 0 
L 0 0 
z
" style="fill: #ffffff"/>
  </g>
  <g id="axes_1">
   <g id="patch_2">
    <path d="M 35.23 182.02 
L 273.545 182.02 
L 273.545 7.2 
L 35.23 7.2 
z
" style="fill: #ffffff"/>
   </g>
   <g id="matplotlib.axis_1">
    <g id="xtick_1">
     <g id="line2d_1">
      <defs>
       <path id="m577f741fc9" d="M 0 0 
L 0 2 
" style="stroke: #000000; stroke-width: 0.5"/>
      </defs>
      <g>
       <use xlink:href="#m577f741fc9" x="46.578333" y="182.02" style="stroke: #000000; stroke-width: 0.5"/>
      </g>
     </g>
     <g id="text_1">
      <text style="font-size: 8px; font-family: 'Arial'; text-anchor: middle" x="46.578333" y="193.24625" transform="rotate(-0 46.578333 193.24625)">0</text>
     </g>
    </g>
    <g id="xtick_2">
     <g id="line2d_2">
      <g>
       <use xlink:href="#m577f741fc9" x="91.971667" y="182.02" style="stroke: #000000; stroke-width: 0.5"/>
      </g>
     </g>
     <g id="text_2">
      <text style="font-size: 8px; font-family: 'Arial'; text-anchor: middle" x="91.971667" y="193.24625" transform="rotate(-0 91.971667 193.24625)">2</text>
     </g>
    </g>
    <g id="xtick_3">
     <g id="line2d_3">
      <g>
       <use xlink:href="#m577f741fc9" x="137.365" y="182.02" style="stroke: #000000; stroke-width: 0.5"/>
      </g>
     </g>
     <g id="text_3">
      <text style="font-size: 8px; font-family: 'Arial'; text-anchor: middle" x="137.365" y="193.24625" transform="rotate(-0 137.365 193.24625)">4</text>
     </g>
    </g>
    <g id="xtick_4">
     <g id="line2d_4">
      <g>
       <use xlink:href="#m577f741fc9" x="182.758333" y="182.02" style="stroke: #000000; stroke-width: 0.5"/>
      </g>
     </g>
     <g id="text_4">
      <text style="font-size: 8px; font-family: 'Arial'; text-anchor: middle" x="182.758333" y="193.24625" transform="rotate(-0 182.758333 193.24625)">6</text>
     </g>
    </g>
    <g id="xtick_5">
     <g id="line2d_5">
      <g>
       <use xlink:href="#m577f741fc9" x="228.151667" y="182.02" style="stroke: #000000; stroke-width: 0.5"/>
      </g>
     </g>
     <g id="text_5">
      <text style="font-size: 8px; font-family: 'Arial'; text-anchor: middle" x="228.151667" y="193.24625" transform="rotate(-0 228.151667 193.24625)">8</text>
     </g>
    </g>
    <g id="xtick_6">
     <g id="line2d_6">
      <g>
       <use xlink:href="#m577f741fc9" x="273.545" y="182.02" style="stroke: #000000; stroke-width: 0.5"/>
      </g>
     </g>
     <g id="text_6">
      <text style="font-size: 8px; font-family: 'Arial'; text-anchor: middle" x="273.545" y="193.24625" transform="rotate(-0 273.545 193.24625)">10</text>
     </g>
    </g>
    <g id="text_7">
     <text style="font-size: 8px; font-family: 'Arial'; text-anchor: middle" x="154.3875" y="204.5625" transform="rotate(-0 154.3875 204.5625)">Session #</text>
    </g>
   </g>
   <g id="matplotlib.axis_2">
    <g id="ytick_1">
     <g id="line2d_7">
      <defs>
       <path id="mcb8e165d4b" d="M 0 0 
L -2 0 
" style="stroke: #000000; stroke-width: 0.5"/>
      </defs>
      <g>
       <use xlink:href="#mcb8e165d4b" x="35.23" y="182.02" style="stroke: #000000; stroke-width: 0.5"/>
      </g>
     </g>
     <g id="text_8">
      <text style="font-size: 8px; font-family: 'Arial'; text-anchor: end" x="29.73" y="184.883125" transform="rotate(-0 29.73 184.883125)">0.0</text>
     </g>
    </g>
    <g id="ytick_2">
     <g id="line2d_8">
      <g>
       <use xlink:href="#mcb8e165d4b" x="35.23" y="148.720952" style="stroke: #000000; stroke-width: 0.5"/>
      </g>
     </g>
     <g id="text_9">
      <text style="font-size: 8px; font-family: 'Arial'; text-anchor: end" x="29.73" y="151.584077" transform="rotate(-0 29.73 151.584077)">0.2</text>
     </g>
    </g>
    <g id="ytick_3">
     <g id="line2d_9">
      <g>
       <use xlink:href="#mcb8e165d4b" x="35.23" y="115.421905" style="stroke: #000000; stroke-width: 0.5"/>
      </g>
     </g>
     <g id="text_10">
      <text style="font-size: 8px; font-family: 'Arial'; text-anchor: end" x="29.73" y="118.28503" transform="rotate(-0 29.73 118.28503)">0.4</text>
     </g>
    </g>
    <g id="ytick_4">
     <g id="line2d_10">
      <g>
       <use xlink:href="#mcb8e165d4b" x="35.23" y="82.122857" style="stroke: #000000; stroke-width: 0.5"/>
      </g>
     </g>
     <g id="text_11">
      <text style="font-size: 8px; font-family: 'Arial'; text-anchor: end" x="29.73" y="84.985982" transform="rotate(-0 29.73 84.985982)">0.6</text>
     </g>
    </g>
    <g id="ytick_5">
     <g id="line2d_11">
      <g>
       <use xlink:href="#mcb8e165d4b" x="35.23" y="48.82381" style="stroke: #000000; stroke-width: 0.5"/>
      </g>
     </g>
     <g id="text_12">
      <text style="font-size: 8px; font-family: 'Arial'; text-anchor: end" x="29.73" y="51.686935" transform="rotate(-0 29.73 51.686935)">0.8</text>
     </g>
    </g>
    <g id="ytick_6">
     <g id="line2d_12">
      <g>
       <use xlink:href="#mcb8e165d4b" x="35.23" y="15.524762" style="stroke: #000000; stroke-width: 0.5"/>
      </g>
     </g>
     <g id="text_13">
      <text style="font-size: 8px; font-family: 'Arial'; text-anchor: end" x="29.73" y="18.387887" transform="rotate(-0 29.73 18.387887)">1.0</text>
     </g>
    </g>
    <g id="text_14">
     <text style="font-size: 8px; font-family: 'Arial'; text-anchor: middle" x="12.92625" y="94.61" transform="rotate(-90 12.92625 94.61)">Accuracy</text>
    </g>
   </g>
   <g id="line2d_13">
    <path d="M 35.23 98.772381 
L 273.545 98.772381 
" clip-path="url(#p7d9a92aa3c)" style="fill: none; stroke-dasharray: 1.85,0.8; stroke-dashoffset: 0; stroke: #808080; stroke-width: 0.5"/>
   </g>
   <g id="patch_3">
    <path d="M 35.23 182.02 
L 35.23 7.2 
" style="fill: none; stroke: #000000; stroke-width: 0.5; stroke-linejoin: miter; stroke-linecap: square"/>
   </g>
   <g id="patch_4">
    <path d="M 35.23 182.02 
L 273.545 182.02 
" style="fill: none; stroke: #000000; stroke-width: 0.5; stroke-linejoin: miter; stroke-linecap: square"/>
   </g>
   <g id="PathCollection_1">
    <defs>
     <path id="md68312382a" d="M 0 1.936492 
C 0.513564 1.936492 1.006162 1.732451 1.369306 1.369306 
C 1.732451 1.006162 1.936492 0.513564 1.936492 0 
C 1.936492 -0.513564 1.732451 -1.006162 1.369306 -1.369306 
C 1.006162 -1.732451 0.513564 -1.936492 0 -1.936492 
C -0.513564 -1.936492 -1.006162 -1.732451 -1.369306 -1.369306 
C -1.732451 -1.006162 -1.936492 -0.513564 -1.936492 0 
C -1.936492 0.513564 -1.732451 1.006162 -1.369306 1.369306 
C -1.006162 1.732451 -0.513564 1.936492 0 1.936492 
z
" style="stroke: #e74c3c; stroke-opacity: 0.5"/>
    </defs>
    <g clip-path="url(#p7d9a92aa3c)">
     <use xlink:href="#md68312382a" x="46.578333" y="28.768701" style="fill: #e74c3c; fill-opacity: 0.5; stroke: #e74c3c; stroke-opacity: 0.5"/>
     <use xlink:href="#md68312382a" x="69.275" y="18.854667" style="fill: #e74c3c; fill-opacity: 0.5; stroke: #e74c3c; stroke-opacity: 0.5"/>
     <use xlink:href="#md68312382a" x="91.971667" y="15.524762" style="fill: #e74c3c; fill-opacity: 0.5; stroke: #e74c3c; stroke-opacity: 0.5"/>
     <use xlink:href="#md68312382a" x="114.668333" y="25.424479" style="fill: #e74c3c; fill-opacity: 0.5; stroke: #e74c3c; stroke-opacity: 0.5"/>
     <use xlink:href="#md68312382a" x="137.365" y="25.514476" style="fill: #e74c3c; fill-opacity: 0.5; stroke: #e74c3c; stroke-opacity: 0.5"/>
     <use xlink:href="#md68312382a" x="160.061667" y="48.82381" style="fill: #e74c3c; fill-opacity: 0.5; stroke: #e74c3c; stroke-opacity: 0.5"/>
     <use xlink:href="#md68312382a" x="182.758333" y="15.524762" style="fill: #e74c3c; fill-opacity: 0.5; stroke: #e74c3c; stroke-opacity: 0.5"/>
     <use xlink:href="#md68312382a" x="205.455" y="94.61" style="fill: #e74c3c; fill-opacity: 0.5; stroke: #e74c3c; stroke-opacity: 0.5"/>
     <use xlink:href="#md68312382a" x="228.151667" y="48.82381" style="fill: #e74c3c; fill-opacity: 0.5; stroke: #e74c3c; stroke-opacity: 0.5"/>
     <use xlink:href="#md68312382a" x="250.848333" y="87.672698" style="fill: #e74c3c; fill-opacity: 0.5; stroke: #e74c3c; stroke-opacity: 0.5"/>
    </g>
   </g>
   <g id="PathCollection_2">
    <defs>
     <path id="mad6a14a723" d="M 0 1.936492 
C 0.513564 1.936492 1.006162 1.732451 1.369306 1.369306 
C 1.732451 1.006162 1.936492 0.513564 1.936492 0 
C 1.936492 -0.513564 1.732451 -1.006162 1.369306 -1.369306 
C 1.006162 -1.732451 0.513564 -1.936492 0 -1.936492 
C -0.513564 -1.936492 -1.006162 -1.732451 -1.369306 -1.369306 
C -1.732451 -1.006162 -1.936492 -0.513564 -1.936492 0 
C -1.936492 0.513564 -1.732451 1.006162 -1.369306 1.369306 
C -1.006162 1.732451 -0.513564 1.936492 0 1.936492 
z
" style="stroke: #8b7355; stroke-opacity: 0.5"/>
    </defs>
    <g clip-path="url(#p7d9a92aa3c)">
     <use xlink:href="#mad6a14a723" x="46.578333" y="15.524762" style="fill: #8b7355; fill-opacity: 0.5; stroke: #8b7355; stroke-opacity: 0.5"/>
     <use xlink:href="#mad6a14a723" x="69.275" y="15.524762" style="fill: #8b7355; fill-opacity: 0.5; stroke: #8b7355; stroke-opacity: 0.5"/>
     <use xlink:href="#mad6a14a723" x="91.971667" y="15.524762" style="fill: #8b7355; fill-opacity: 0.5; stroke: #8b7355; stroke-opacity: 0.5"/>
     <use xlink:href="#mad6a14a723" x="114.668333" y="15.524762" style="fill: #8b7355; fill-opacity: 0.5; stroke: #8b7355; stroke-opacity: 0.5"/>
     <use xlink:href="#mad6a14a723" x="137.365" y="32.174286" style="fill: #8b7355; fill-opacity: 0.5; stroke: #8b7355; stroke-opacity: 0.5"/>
     <use xlink:href="#mad6a14a723" x="160.061667" y="22.184571" style="fill: #8b7355; fill-opacity: 0.5; stroke: #8b7355; stroke-opacity: 0.5"/>
     <use xlink:href="#mad6a14a723" x="182.758333" y="154.270794" style="fill: #8b7355; fill-opacity: 0.5; stroke: #8b7355; stroke-opacity: 0.5"/>
     <use xlink:href="#mad6a14a723" x="205.455" y="45.493905" style="fill: #8b7355; fill-opacity: 0.5; stroke: #8b7355; stroke-opacity: 0.5"/>
     <use xlink:href="#mad6a14a723" x="228.151667" y="41.813484" style="fill: #8b7355; fill-opacity: 0.5; stroke: #8b7355; stroke-opacity: 0.5"/>
     <use xlink:href="#mad6a14a723" x="250.848333" y="129.990238" style="fill: #8b7355; fill-opacity: 0.5; stroke: #8b7355; stroke-opacity: 0.5"/>
    </g>
   </g>
   <g id="PathCollection_3">
    <defs>
     <path id="m16be24b147" d="M 0 1.936492 
C 0.513564 1.936492 1.006162 1.732451 1.369306 1.369306 
C 1.732451 1.006162 1.936492 0.513564 1.936492 0 
C 1.936492 -0.513564 1.732451 -1.006162 1.369306 -1.369306 
C 1.006162 -1.732451 0.513564 -1.936492 0 -1.936492 
C -0.513564 -1.936492 -1.006162 -1.732451 -1.369306 -1.369306 
C -1.732451 -1.006162 -1.936492 -0.513564 -1.936492 0 
C -1.936492 0.513564 -1.732451 1.006162 -1.369306 1.369306 
C -1.006162 1.732451 -0.513564 1.936492 0 1.936492 
z
" style="stroke: #e91e63; stroke-opacity: 0.5"/>
    </defs>
    <g clip-path="url(#p7d9a92aa3c)">
     <use xlink:href="#m16be24b147" x="46.578333" y="66.398307" style="fill: #e91e63; fill-opacity: 0.5; stroke: #e91e63; stroke-opacity: 0.5"/>
     <use xlink:href="#m16be24b147" x="69.275" y="69.523218" style="fill: #e91e63; fill-opacity: 0.5; stroke: #e91e63; stroke-opacity: 0.5"/>
     <use xlink:href="#m16be24b147" x="91.971667" y="53.94674" style="fill: #e91e63; fill-opacity: 0.5; stroke: #e91e63; stroke-opacity: 0.5"/>
     <use xlink:href="#m16be24b147" x="114.668333" y="76.643267" style="fill: #e91e63; fill-opacity: 0.5; stroke: #e91e63; stroke-opacity: 0.5"/>
     <use xlink:href="#m16be24b147" x="137.365" y="51.4355" style="fill: #e91e63; fill-opacity: 0.5; stroke: #e91e63; stroke-opacity: 0.5"/>
     <use xlink:href="#m16be24b147" x="160.061667" y="72.842795" style="fill: #e91e63; fill-opacity: 0.5; stroke: #e91e63; stroke-opacity: 0.5"/>
     <use xlink:href="#m16be24b147" x="182.758333" y="77.960476" style="fill: #e91e63; fill-opacity: 0.5; stroke: #e91e63; stroke-opacity: 0.5"/>
     <use xlink:href="#m16be24b147" x="205.455" y="69.955897" style="fill: #e91e63; fill-opacity: 0.5; stroke: #e91e63; stroke-opacity: 0.5"/>
     <use xlink:href="#m16be24b147" x="228.151667" y="89.522646" style="fill: #e91e63; fill-opacity: 0.5; stroke: #e91e63; stroke-opacity: 0.5"/>
     <use xlink:href="#m16be24b147" x="250.848333" y="73.436149" style="fill: #e91e63; fill-opacity: 0.5; stroke: #e91e63; stroke-opacity: 0.5"/>
    </g>
   </g>
   <g id="PathCollection_4">
    <defs>
     <path id="m0daf22518a" d="M 0 1.936492 
C 0.513564 1.936492 1.006162 1.732451 1.369306 1.369306 
C 1.732451 1.006162 1.936492 0.513564 1.936492 0 
C 1.936492 -0.513564 1.732451 -1.006162 1.369306 -1.369306 
C 1.006162 -1.732451 0.513564 -1.936492 0 -1.936492 
C -0.513564 -1.936492 -1.006162 -1.732451 -1.369306 -1.369306 
C -1.732451 -1.006162 -1.936492 -0.513564 -1.936492 0 
C -1.936492 0.513564 -1.732451 1.006162 -1.369306 1.369306 
C -1.006162 1.732451 -0.513564 1.936492 0 1.936492 
z
" style="stroke: #f39c12; stroke-opacity: 0.5"/>
    </defs>
    <g clip-path="url(#p7d9a92aa3c)">
     <use xlink:href="#m0daf22518a" x="46.578333" y="44.906275" style="fill: #f39c12; fill-opacity: 0.5; stroke: #f39c12; stroke-opacity: 0.5"/>
     <use xlink:href="#m0daf22518a" x="69.275" y="136.090279" style="fill: #f39c12; fill-opacity: 0.5; stroke: #f39c12; stroke-opacity: 0.5"/>
     <use xlink:href="#m0daf22518a" x="91.971667" y="141.521158" style="fill: #f39c12; fill-opacity: 0.5; stroke: #f39c12; stroke-opacity: 0.5"/>
     <use xlink:href="#m0daf22518a" x="114.668333" y="53.94674" style="fill: #f39c12; fill-opacity: 0.5; stroke: #f39c12; stroke-opacity: 0.5"/>
     <use xlink:href="#m0daf22518a" x="137.365" y="30.660693" style="fill: #f39c12; fill-opacity: 0.5; stroke: #f39c12; stroke-opacity: 0.5"/>
     <use xlink:href="#m0daf22518a" x="160.061667" y="91.204416" style="fill: #f39c12; fill-opacity: 0.5; stroke: #f39c12; stroke-opacity: 0.5"/>
     <use xlink:href="#m0daf22518a" x="182.758333" y="98.772381" style="fill: #f39c12; fill-opacity: 0.5; stroke: #f39c12; stroke-opacity: 0.5"/>
     <use xlink:href="#m0daf22518a" x="205.455" y="91.533458" style="fill: #f39c12; fill-opacity: 0.5; stroke: #f39c12; stroke-opacity: 0.5"/>
     <use xlink:href="#m0daf22518a" x="228.151667" y="32.361359" style="fill: #f39c12; fill-opacity: 0.5; stroke: #f39c12; stroke-opacity: 0.5"/>
     <use xlink:href="#m0daf22518a" x="250.848333" y="105.470465" style="fill: #f39c12; fill-opacity: 0.5; stroke: #f39c12; stroke-opacity: 0.5"/>
    </g>
   </g>
   <g id="PathCollection_5">
    <defs>
     <path id="m98dd2214cf" d="M 0 1.936492 
C 0.513564 1.936492 1.006162 1.732451 1.369306 1.369306 
C 1.732451 1.006162 1.936492 0.513564 1.936492 0 
C 1.936492 -0.513564 1.732451 -1.006162 1.369306 -1.369306 
C 1.006162 -1.732451 0.513564 -1.936492 0 -1.936492 
C -0.513564 -1.936492 -1.006162 -1.732451 -1.369306 -1.369306 
C -1.732451 -1.006162 -1.936492 -0.513564 -1.936492 0 
C -1.936492 0.513564 -1.732451 1.006162 -1.369306 1.369306 
C -1.006162 1.732451 -0.513564 1.936492 0 1.936492 
z
" style="stroke: #e67e22; stroke-opacity: 0.5"/>
    </defs>
    <g clip-path="url(#p7d9a92aa3c)">
     <use xlink:href="#m98dd2214cf" x="46.578333" y="129.919449" style="fill: #e67e22; fill-opacity: 0.5; stroke: #e67e22; stroke-opacity: 0.5"/>
     <use xlink:href="#m98dd2214cf" x="69.275" y="122.081714" style="fill: #e67e22; fill-opacity: 0.5; stroke: #e67e22; stroke-opacity: 0.5"/>
     <use xlink:href="#m98dd2214cf" x="91.971667" y="105.43219" style="fill: #e67e22; fill-opacity: 0.5; stroke: #e67e22; stroke-opacity: 0.5"/>
     <use xlink:href="#m98dd2214cf" x="114.668333" y="122.081714" style="fill: #e67e22; fill-opacity: 0.5; stroke: #e67e22; stroke-opacity: 0.5"/>
     <use xlink:href="#m98dd2214cf" x="137.365" y="113.340714" style="fill: #e67e22; fill-opacity: 0.5; stroke: #e67e22; stroke-opacity: 0.5"/>
     <use xlink:href="#m98dd2214cf" x="160.061667" y="105.43219" style="fill: #e67e22; fill-opacity: 0.5; stroke: #e67e22; stroke-opacity: 0.5"/>
     <use xlink:href="#m98dd2214cf" x="182.758333" y="82.122857" style="fill: #e67e22; fill-opacity: 0.5; stroke: #e67e22; stroke-opacity: 0.5"/>
     <use xlink:href="#m98dd2214cf" x="205.455" y="28.844381" style="fill: #e67e22; fill-opacity: 0.5; stroke: #e67e22; stroke-opacity: 0.5"/>
     <use xlink:href="#m98dd2214cf" x="228.151667" y="90.447619" style="fill: #e67e22; fill-opacity: 0.5; stroke: #e67e22; stroke-opacity: 0.5"/>
     <use xlink:href="#m98dd2214cf" x="250.848333" y="114.884823" style="fill: #e67e22; fill-opacity: 0.5; stroke: #e67e22; stroke-opacity: 0.5"/>
    </g>
   </g>
   <g id="PathCollection_6">
    <defs>
     <path id="m8eb88430f3" d="M 0 1.936492 
C 0.513564 1.936492 1.006162 1.732451 1.369306 1.369306 
C 1.732451 1.006162 1.936492 0.513564 1.936492 0 
C 1.936492 -0.513564 1.732451 -1.006162 1.369306 -1.369306 
C 1.006162 -1.732451 0.513564 -1.936492 0 -1.936492 
C -0.513564 -1.936492 -1.006162 -1.732451 -1.369306 -1.369306 
C -1.732451 -1.006162 -1.936492 -0.513564 -1.936492 0 
C -1.936492 0.513564 -1.732451 1.006162 -1.369306 1.369306 
C -1.006162 1.732451 -0.513564 1.936492 0 1.936492 
z
" style="stroke: #2ecc71; stroke-opacity: 0.5"/>
    </defs>
    <g clip-path="url(#p7d9a92aa3c)">
     <use xlink:href="#m8eb88430f3" x="46.578333" y="73.906209" style="fill: #2ecc71; fill-opacity: 0.5; stroke: #2ecc71; stroke-opacity: 0.5"/>
     <use xlink:href="#m8eb88430f3" x="69.275" y="55.887244" style="fill: #2ecc71; fill-opacity: 0.5; stroke: #2ecc71; stroke-opacity: 0.5"/>
     <use xlink:href="#m8eb88430f3" x="91.971667" y="47.749647" style="fill: #2ecc71; fill-opacity: 0.5; stroke: #2ecc71; stroke-opacity: 0.5"/>
     <use xlink:href="#m8eb88430f3" x="114.668333" y="38.892515" style="fill: #2ecc71; fill-opacity: 0.5; stroke: #2ecc71; stroke-opacity: 0.5"/>
     <use xlink:href="#m8eb88430f3" x="137.365" y="61.371277" style="fill: #2ecc71; fill-opacity: 0.5; stroke: #2ecc71; stroke-opacity: 0.5"/>
     <use xlink:href="#m8eb88430f3" x="160.061667" y="38.489622" style="fill: #2ecc71; fill-opacity: 0.5; stroke: #2ecc71; stroke-opacity: 0.5"/>
     <use xlink:href="#m8eb88430f3" x="182.758333" y="56.363217" style="fill: #2ecc71; fill-opacity: 0.5; stroke: #2ecc71; stroke-opacity: 0.5"/>
     <use xlink:href="#m8eb88430f3" x="205.455" y="34.662146" style="fill: #2ecc71; fill-opacity: 0.5; stroke: #2ecc71; stroke-opacity: 0.5"/>
     <use xlink:href="#m8eb88430f3" x="228.151667" y="53.94674" style="fill: #2ecc71; fill-opacity: 0.5; stroke: #2ecc71; stroke-opacity: 0.5"/>
     <use xlink:href="#m8eb88430f3" x="250.848333" y="51.4355" style="fill: #2ecc71; fill-opacity: 0.5; stroke: #2ecc71; stroke-opacity: 0.5"/>
    </g>
   </g>
   <g id="PathCollection_7">
    <defs>
     <path id="m961ebe75eb" d="M 0 1.936492 
C 0.513564 1.936492 1.006162 1.732451 1.369306 1.369306 
C 1.732451 1.006162 1.936492 0.513564 1.936492 0 
C 1.936492 -0.513564 1.732451 -1.006162 1.369306 -1.369306 
C 1.006162 -1.732451 0.513564 -1.936492 0 -1.936492 
C -0.513564 -1.936492 -1.006162 -1.732451 -1.369306 -1.369306 
C -1.732451 -1.006162 -1.936492 -0.513564 -1.936492 0 
C -1.936492 0.513564 -1.732451 1.006162 -1.369306 1.369306 
C -1.006162 1.732451 -0.513564 1.936492 0 1.936492 
z
" style="stroke: #34495e; stroke-opacity: 0.5"/>
    </defs>
    <g clip-path="url(#p7d9a92aa3c)">
     <use xlink:href="#m961ebe75eb" x="46.578333" y="15.524762" style="fill: #34495e; fill-opacity: 0.5; stroke: #34495e; stroke-opacity: 0.5"/>
     <use xlink:href="#m961ebe75eb" x="69.275" y="15.524762" style="fill: #34495e; fill-opacity: 0.5; stroke: #34495e; stroke-opacity: 0.5"/>
     <use xlink:href="#m961ebe75eb" x="91.971667" y="132.071429" style="fill: #34495e; fill-opacity: 0.5; stroke: #34495e; stroke-opacity: 0.5"/>
     <use xlink:href="#m961ebe75eb" x="114.668333" y="170.920317" style="fill: #34495e; fill-opacity: 0.5; stroke: #34495e; stroke-opacity: 0.5"/>
     <use xlink:href="#m961ebe75eb" x="137.365" y="77.960476" style="fill: #34495e; fill-opacity: 0.5; stroke: #34495e; stroke-opacity: 0.5"/>
     <use xlink:href="#m961ebe75eb" x="160.061667" y="56.363217" style="fill: #34495e; fill-opacity: 0.5; stroke: #34495e; stroke-opacity: 0.5"/>
     <use xlink:href="#m961ebe75eb" x="182.758333" y="54.373651" style="fill: #34495e; fill-opacity: 0.5; stroke: #34495e; stroke-opacity: 0.5"/>
     <use xlink:href="#m961ebe75eb" x="205.455" y="55.483619" style="fill: #34495e; fill-opacity: 0.5; stroke: #34495e; stroke-opacity: 0.5"/>
     <use xlink:href="#m961ebe75eb" x="228.151667" y="98.772381" style="fill: #34495e; fill-opacity: 0.5; stroke: #34495e; stroke-opacity: 0.5"/>
     <use xlink:href="#m961ebe75eb" x="250.848333" y="77.960476" style="fill: #34495e; fill-opacity: 0.5; stroke: #34495e; stroke-opacity: 0.5"/>
    </g>
   </g>
   <g id="PathCollection_8">
    <defs>
     <path id="m7a16ae734e" d="M 0 1.936492 
C 0.513564 1.936492 1.006162 1.732451 1.369306 1.369306 
C 1.732451 1.006162 1.936492 0.513564 1.936492 0 
C 1.936492 -0.513564 1.732451 -1.006162 1.369306 -1.369306 
C 1.006162 -1.732451 0.513564 -1.936492 0 -1.936492 
C -0.513564 -1.936492 -1.006162 -1.732451 -1.369306 -1.369306 
C -1.732451 -1.006162 -1.936492 -0.513564 -1.936492 0 
C -1.936492 0.513564 -1.732451 1.006162 -1.369306 1.369306 
C -1.006162 1.732451 -0.513564 1.936492 0 1.936492 
z
" style="stroke: #3498db; stroke-opacity: 0.5"/>
    </defs>
    <g clip-path="url(#p7d9a92aa3c)">
     <use xlink:href="#m7a16ae734e" x="46.578333" y="53.94674" style="fill: #3498db; fill-opacity: 0.5; stroke: #3498db; stroke-opacity: 0.5"/>
     <use xlink:href="#m7a16ae734e" x="69.275" y="45.548493" style="fill: #3498db; fill-opacity: 0.5; stroke: #3498db; stroke-opacity: 0.5"/>
     <use xlink:href="#m7a16ae734e" x="91.971667" y="40.922341" style="fill: #3498db; fill-opacity: 0.5; stroke: #3498db; stroke-opacity: 0.5"/>
     <use xlink:href="#m7a16ae734e" x="114.668333" y="81.721664" style="fill: #3498db; fill-opacity: 0.5; stroke: #3498db; stroke-opacity: 0.5"/>
     <use xlink:href="#m7a16ae734e" x="137.365" y="64.769832" style="fill: #3498db; fill-opacity: 0.5; stroke: #3498db; stroke-opacity: 0.5"/>
     <use xlink:href="#m7a16ae734e" x="160.061667" y="95.30373" style="fill: #3498db; fill-opacity: 0.5; stroke: #3498db; stroke-opacity: 0.5"/>
     <use xlink:href="#m7a16ae734e" x="182.758333" y="43.273968" style="fill: #3498db; fill-opacity: 0.5; stroke: #3498db; stroke-opacity: 0.5"/>
     <use xlink:href="#m7a16ae734e" x="205.455" y="49.880922" style="fill: #3498db; fill-opacity: 0.5; stroke: #3498db; stroke-opacity: 0.5"/>
     <use xlink:href="#m7a16ae734e" x="228.151667" y="43.273968" style="fill: #3498db; fill-opacity: 0.5; stroke: #3498db; stroke-opacity: 0.5"/>
     <use xlink:href="#m7a16ae734e" x="250.848333" y="64.769832" style="fill: #3498db; fill-opacity: 0.5; stroke: #3498db; stroke-opacity: 0.5"/>
    </g>
   </g>
   <g id="PathCollection_9">
    <defs>
     <path id="mb9ccb83d04" d="M 0 1.936492 
C 0.513564 1.936492 1.006162 1.732451 1.369306 1.369306 
C 1.732451 1.006162 1.936492 0.513564 1.936492 0 
C 1.936492 -0.513564 1.732451 -1.006162 1.369306 -1.369306 
C 1.006162 -1.732451 0.513564 -1.936492 0 -1.936492 
C -0.513564 -1.936492 -1.006162 -1.732451 -1.369306 -1.369306 
C -1.732451 -1.006162 -1.936492 -0.513564 -1.936492 0 
C -1.936492 0.513564 -1.732451 1.006162 -1.369306 1.369306 
C -1.006162 1.732451 -0.513564 1.936492 0 1.936492 
z
" style="stroke: #9b59b6; stroke-opacity: 0.5"/>
    </defs>
    <g clip-path="url(#p7d9a92aa3c)">
     <use xlink:href="#mb9ccb83d04" x="46.578333" y="45.514587" style="fill: #9b59b6; fill-opacity: 0.5; stroke: #9b59b6; stroke-opacity: 0.5"/>
     <use xlink:href="#mb9ccb83d04" x="69.275" y="45.796623" style="fill: #9b59b6; fill-opacity: 0.5; stroke: #9b59b6; stroke-opacity: 0.5"/>
     <use xlink:href="#mb9ccb83d04" x="91.971667" y="77.960476" style="fill: #9b59b6; fill-opacity: 0.5; stroke: #9b59b6; stroke-opacity: 0.5"/>
     <use xlink:href="#mb9ccb83d04" x="114.668333" y="55.887244" style="fill: #9b59b6; fill-opacity: 0.5; stroke: #9b59b6; stroke-opacity: 0.5"/>
     <use xlink:href="#mb9ccb83d04" x="137.365" y="51.945595" style="fill: #9b59b6; fill-opacity: 0.5; stroke: #9b59b6; stroke-opacity: 0.5"/>
     <use xlink:href="#mb9ccb83d04" x="160.061667" y="51.945595" style="fill: #9b59b6; fill-opacity: 0.5; stroke: #9b59b6; stroke-opacity: 0.5"/>
     <use xlink:href="#mb9ccb83d04" x="182.758333" y="51.945595" style="fill: #9b59b6; fill-opacity: 0.5; stroke: #9b59b6; stroke-opacity: 0.5"/>
     <use xlink:href="#mb9ccb83d04" x="205.455" y="80.498513" style="fill: #9b59b6; fill-opacity: 0.5; stroke: #9b59b6; stroke-opacity: 0.5"/>
     <use xlink:href="#mb9ccb83d04" x="228.151667" y="40.922341" style="fill: #9b59b6; fill-opacity: 0.5; stroke: #9b59b6; stroke-opacity: 0.5"/>
     <use xlink:href="#mb9ccb83d04" x="250.848333" y="64.769832" style="fill: #9b59b6; fill-opacity: 0.5; stroke: #9b59b6; stroke-opacity: 0.5"/>
    </g>
   </g>
   <g id="PathCollection_10">
    <defs>
     <path id="m926dbaed1a" d="M 0 1.936492 
C 0.513564 1.936492 1.006162 1.732451 1.369306 1.369306 
C 1.732451 1.006162 1.936492 0.513564 1.936492 0 
C 1.936492 -0.513564 1.732451 -1.006162 1.369306 -1.369306 
C 1.006162 -1.732451 0.513564 -1.936492 0 -1.936492 
C -0.513564 -1.936492 -1.006162 -1.732451 -1.369306 -1.369306 
C -1.732451 -1.006162 -1.936492 -0.513564 -1.936492 0 
C -1.936492 0.513564 -1.732451 1.006162 -1.369306 1.369306 
C -1.006162 1.732451 -0.513564 1.936492 0 1.936492 
z
" style="stroke: #1abc9c; stroke-opacity: 0.5"/>
    </defs>
    <g clip-path="url(#p7d9a92aa3c)">
     <use xlink:href="#m926dbaed1a" x="46.578333" y="61.925074" style="fill: #1abc9c; fill-opacity: 0.5; stroke: #1abc9c; stroke-opacity: 0.5"/>
     <use xlink:href="#m926dbaed1a" x="69.275" y="52.072497" style="fill: #1abc9c; fill-opacity: 0.5; stroke: #1abc9c; stroke-opacity: 0.5"/>
     <use xlink:href="#m926dbaed1a" x="91.971667" y="36.336667" style="fill: #1abc9c; fill-opacity: 0.5; stroke: #1abc9c; stroke-opacity: 0.5"/>
     <use xlink:href="#m926dbaed1a" x="114.668333" y="55.887244" style="fill: #1abc9c; fill-opacity: 0.5; stroke: #1abc9c; stroke-opacity: 0.5"/>
     <use xlink:href="#m926dbaed1a" x="137.365" y="82.122857" style="fill: #1abc9c; fill-opacity: 0.5; stroke: #1abc9c; stroke-opacity: 0.5"/>
     <use xlink:href="#m926dbaed1a" x="160.061667" y="61.371277" style="fill: #1abc9c; fill-opacity: 0.5; stroke: #1abc9c; stroke-opacity: 0.5"/>
     <use xlink:href="#m926dbaed1a" x="182.758333" y="89.522646" style="fill: #1abc9c; fill-opacity: 0.5; stroke: #1abc9c; stroke-opacity: 0.5"/>
     <use xlink:href="#m926dbaed1a" x="205.455" y="108.022116" style="fill: #1abc9c; fill-opacity: 0.5; stroke: #1abc9c; stroke-opacity: 0.5"/>
     <use xlink:href="#m926dbaed1a" x="228.151667" y="72.842795" style="fill: #1abc9c; fill-opacity: 0.5; stroke: #1abc9c; stroke-opacity: 0.5"/>
     <use xlink:href="#m926dbaed1a" x="250.848333" y="102.736553" style="fill: #1abc9c; fill-opacity: 0.5; stroke: #1abc9c; stroke-opacity: 0.5"/>
    </g>
   </g>
   <g id="line2d_14">
    <path d="M 103.32 22.817417 
L 216.803333 59.091016 
" clip-path="url(#p7d9a92aa3c)" style="fill: none; stroke: #e74c3c; stroke-opacity: 0.9; stroke-width: 1.5; stroke-linecap: square"/>
   </g>
   <g id="line2d_15">
    <path d="M 103.32 18.854667 
L 216.803333 78.750598 
" clip-path="url(#p7d9a92aa3c)" style="fill: none; stroke: #8b7355; stroke-opacity: 0.9; stroke-width: 1.5; stroke-linecap: square"/>
   </g>
   <g id="line2d_16">
    <path d="M 103.32 63.589406 
L 216.803333 76.743593 
" clip-path="url(#p7d9a92aa3c)" style="fill: none; stroke: #e91e63; stroke-opacity: 0.9; stroke-width: 1.5; stroke-linecap: square"/>
   </g>
   <g id="line2d_17">
    <path d="M 103.32 81.425029 
L 216.803333 83.868416 
" clip-path="url(#p7d9a92aa3c)" style="fill: none; stroke: #f39c12; stroke-opacity: 0.9; stroke-width: 1.5; stroke-linecap: square"/>
   </g>
   <g id="line2d_18">
    <path d="M 103.32 118.571157 
L 216.803333 84.346374 
" clip-path="url(#p7d9a92aa3c)" style="fill: none; stroke: #e67e22; stroke-opacity: 0.9; stroke-width: 1.5; stroke-linecap: square"/>
   </g>
   <g id="line2d_19">
    <path d="M 103.32 55.561378 
L 216.803333 46.979445 
" clip-path="url(#p7d9a92aa3c)" style="fill: none; stroke: #2ecc71; stroke-opacity: 0.9; stroke-width: 1.5; stroke-linecap: square"/>
   </g>
   <g id="line2d_20">
    <path d="M 103.32 82.400349 
L 216.803333 68.590669 
" clip-path="url(#p7d9a92aa3c)" style="fill: none; stroke: #34495e; stroke-opacity: 0.9; stroke-width: 1.5; stroke-linecap: square"/>
   </g>
   <g id="line2d_21">
    <path d="M 103.32 57.381814 
L 216.803333 59.300484 
" clip-path="url(#p7d9a92aa3c)" style="fill: none; stroke: #3498db; stroke-opacity: 0.9; stroke-width: 1.5; stroke-linecap: square"/>
   </g>
   <g id="line2d_22">
    <path d="M 103.32 55.420905 
L 216.803333 58.016375 
" clip-path="url(#p7d9a92aa3c)" style="fill: none; stroke: #9b59b6; stroke-opacity: 0.9; stroke-width: 1.5; stroke-linecap: square"/>
   </g>
   <g id="line2d_23">
    <path d="M 103.32 57.668868 
L 216.803333 86.899077 
" clip-path="url(#p7d9a92aa3c)" style="fill: none; stroke: #1abc9c; stroke-opacity: 0.9; stroke-width: 1.5; stroke-linecap: square"/>
   </g>
  </g>
 </g>
 <defs>
  <clipPath id="p7d9a92aa3c">
   <rect x="35.23" y="7.2" width="238.315" height="174.82"/>
  </clipPath>
 </defs>
</svg>
